<svg width="320" height="200" viewBox="0 0 320 200" fill="none" xmlns="http://www.w3.org/2000/svg">
<g clip-path="url(#clip0_338_9558)">
<path d="M0 8C0 3.58173 3.58172 0 8 0H312C316.418 0 320 3.58172 320 8V192C320 196.418 316.418 200 312 200H7.99999C3.58171 200 0 196.418 0 192V8Z" fill="#E1FBFF"/>
<g clip-path="url(#clip1_338_9558)">
<rect width="358" height="225" transform="translate(-29 -12.5)" fill="#F2F5FF"/>
<g filter="url(#filter0_f_338_9558)">
<ellipse cx="150" cy="190.088" rx="101.931" ry="90.0879" fill="#E2FFE0"/>
</g>
<g filter="url(#filter1_f_338_9558)">
<ellipse cx="362.065" cy="149.878" rx="164.581" ry="145.459" fill="#E2FFE0"/>
</g>
<g filter="url(#filter2_f_338_9558)">
<ellipse cx="139.061" cy="265.674" rx="204.11" ry="75.3662" fill="#F5F3FF"/>
</g>
</g>
<path d="M144.232 103.411L100.764 130.76L117.94 157.052L159.822 126.797L144.232 103.411Z" fill="#9AEAF8"/>
<path d="M171.714 78.4397L164.843 92.4448L176.866 112.263L183.472 110.281L201.045 98.7866L209.368 92.4448L207.122 87.1599V81.7429L201.837 69.3234V65.7562L197.477 63.9065L181.623 74.0798L174.224 59.5464L168.146 58.2251L165.9 61.3961L171.714 78.4397Z" fill="#9AEAF8"/>
<path fill-rule="evenodd" clip-rule="evenodd" d="M197.184 53.316L191.501 56.2388L192.475 49.9061L187.929 45.5218L194.262 44.5476L197.184 38.7019L199.945 44.5476L206.278 45.5218L201.731 49.9061L202.868 56.2388L197.184 53.316ZM150.582 143.761L153.505 149.445L159.837 150.419L155.291 154.965L156.265 161.298L150.582 158.213L144.899 161.298L146.035 154.965L141.489 150.419L147.821 149.445L150.582 143.761ZM110.474 80.7582L117.875 62.8478L129.472 79.9463L131.848 59.6067L149.12 70.6907L143.687 52.5335C146.016 50.7311 147.849 48.9952 149.161 47.615C149.778 46.9639 149.752 45.936 149.102 45.319C148.453 44.7036 147.425 44.7296 146.806 45.3774C143.115 49.2648 135.089 56.1643 122.803 58.7104C115.222 60.3196 107.243 59.9948 99.7326 57.767C98.8736 57.5153 97.9692 58.0024 97.7143 58.863C97.4593 59.7236 97.9513 60.6265 98.8103 60.8814C100.543 61.3945 102.303 61.781 104.073 62.1041L110.474 80.7582ZM220.387 140.712C221.27 140.517 222.129 141.084 222.316 141.959C222.506 142.836 221.947 143.7 221.07 143.887L220.507 144.008L220.501 144.01C218.887 144.358 217.252 144.712 215.381 144.871L205.953 160.487L201.643 144.595L187.766 155.778L191.189 136.602C189.756 135.375 188.367 134.017 187.029 132.488C186.44 131.814 186.508 130.787 187.184 130.196C187.856 129.605 188.88 129.672 189.475 130.351C190.676 131.723 191.917 132.942 193.196 134.046L197.371 137.097C199.222 138.216 201.161 139.114 203.207 139.782C211.664 142.602 215.621 141.744 219.814 140.834L219.817 140.834L220.387 140.712ZM204.816 119.567C204.816 123.417 207.949 126.549 211.799 126.549C215.649 126.549 218.781 123.417 218.781 119.567C218.781 115.717 215.649 112.584 211.799 112.584C207.949 112.584 204.816 115.717 204.816 119.567ZM211.799 115.832C213.859 115.832 215.533 117.506 215.533 119.567C215.533 121.627 213.859 123.301 211.799 123.301C209.738 123.301 208.064 121.626 208.064 119.567C208.064 117.508 209.738 115.832 211.799 115.832ZM103.864 103.67C104.304 102.887 105.289 102.608 106.075 103.051C107.983 104.126 110.26 103.595 111.372 101.817C112.408 99.9724 111.879 97.6959 110.102 96.5852C109.342 96.1095 109.112 95.1076 109.586 94.3476C110.062 93.5877 111.062 93.3571 111.823 93.8313C115.099 95.8789 116.104 100.024 114.163 103.475C112.79 105.675 110.523 106.862 108.15 106.862C106.92 106.862 105.661 106.544 104.482 105.88C103.701 105.441 103.424 104.452 103.864 103.67ZM180.021 112.891L190.116 107.705C191.471 107.027 192.812 106.189 194.177 105.337L194.192 105.328L208.994 95.4029C211.37 93.7402 212.003 90.3481 210.368 87.7841C209.884 87.0907 209.241 86.5663 208.525 86.1814C210.035 84.3741 210.279 81.6527 208.907 79.5011C208.29 78.621 207.434 77.9829 206.473 77.6094C207.298 75.9028 207.259 73.7805 206.145 72.0317C205.544 71.1743 204.714 70.5524 203.782 70.1741C203.946 69.7957 204.076 69.406 204.141 69.0098C204.399 67.4688 204.032 65.897 203.222 64.887C201.558 62.5147 198.167 61.8781 195.629 63.4954L182.514 72.2866L178.545 62.4286C176.965 58.6825 173.01 56.5115 169.101 57.213H168.931C168.833 57.213 168.736 57.2211 168.64 57.239C167.347 57.4744 166.209 58.3025 165.514 59.5106C164.785 60.7837 164.644 62.2792 165.136 63.6286L169.022 73.9867C170.04 76.895 169.848 79.8162 168.466 82.4402L164.53 89.9437L162.374 86.7497C161.87 86.006 160.86 85.8096 160.118 86.3129L141.411 98.9412C141.053 99.1815 140.807 99.555 140.725 99.9771C140.644 100.399 140.734 100.838 140.974 101.195L142.417 103.332L99.8822 129.387C99.5039 129.619 99.2376 129.995 99.1434 130.428C99.0492 130.863 99.1385 131.315 99.3853 131.682L117.085 157.825C117.333 158.193 117.721 158.442 118.158 158.516C118.249 158.531 118.338 158.539 118.429 158.539C118.777 158.539 119.118 158.429 119.4 158.218L159.367 128.437L160.599 130.264C160.912 130.729 161.424 130.979 161.947 130.979C162.259 130.979 162.575 130.888 162.854 130.701L181.562 118.074C181.919 117.834 182.166 117.461 182.247 117.037C182.33 116.613 182.241 116.176 182.001 115.819L180.021 112.891ZM171.342 83.9503C173.127 80.5615 173.391 76.6416 172.076 72.8809L168.184 62.5033C168.028 62.0762 168.085 61.5615 168.335 61.1279C168.528 60.7902 168.807 60.5531 169.114 60.4606H169.255C169.361 60.4606 169.47 60.4508 169.574 60.4281C172.029 59.9377 174.549 61.3066 175.544 63.6643L180.252 75.3556C180.434 75.8103 180.814 76.1578 181.281 76.3006C181.747 76.4452 182.259 76.3705 182.663 76.0977L197.409 66.2137C198.437 65.5641 199.908 65.8142 200.625 66.8323C200.923 67.2042 201.046 67.8472 200.94 68.4756C200.856 68.979 200.489 69.5408 199.994 69.8412L199.568 70.1351C199.213 70.2715 198.865 70.4404 198.534 70.6531L192.201 75.0373C191.464 75.5472 191.281 76.5605 191.79 77.2977C192.299 78.0332 193.312 78.2183 194.051 77.7085L194.855 77.1515C195.083 77.1142 195.308 77.0378 195.512 76.8966L200.979 73.1067C201.907 72.8566 202.949 73.1278 203.446 73.8357C204.099 74.8603 203.849 76.3364 202.918 76.9875L196.585 81.3717C196.578 81.3769 196.572 81.3838 196.567 81.3908C196.562 81.3972 196.557 81.4037 196.55 81.4091L194.962 82.5084C194.224 83.0183 194.041 84.0315 194.551 84.7687C195.061 85.5043 196.071 85.6878 196.811 85.1795L203.092 80.831C204.118 80.1783 205.593 80.4299 206.208 81.3068C206.861 82.3314 206.609 83.8058 205.679 84.457L203.163 86.1993C203.112 86.2267 203.059 86.2512 203.007 86.2757L203.006 86.2758C202.922 86.3152 202.838 86.3545 202.758 86.4055L196.426 90.7897C195.689 91.2996 195.506 92.3129 196.016 93.0501C196.525 93.7856 197.535 93.9707 198.276 93.4609L200.832 91.6909C200.958 91.6438 201.083 91.5935 201.199 91.5123L204.805 89.0149C205.81 88.5359 207.101 88.7762 207.671 89.5881C208.324 90.6127 208.074 92.0871 207.164 92.7253L192.409 102.617L192.406 102.62L192.406 102.62C191.111 103.427 189.889 104.19 188.653 104.81L178.196 110.183L166.599 93.003L171.342 83.9503ZM118.824 154.597L103.029 131.268L144.238 106.027L157.546 125.743L118.824 154.597ZM162.382 127.099L161.377 125.61C161.33 125.451 161.278 125.292 161.18 125.149L146.079 102.905C146.065 102.883 146.046 102.868 146.027 102.852L146.027 102.852C146.012 102.839 145.996 102.827 145.983 102.811L144.574 100.724L160.589 89.9129L178.396 116.291L162.382 127.099ZM166.82 117.618H164.384C163.41 117.618 162.598 116.806 162.598 115.832V113.396C162.598 112.422 163.41 111.61 164.384 111.61H166.82C167.794 111.61 168.606 112.422 168.606 113.396V115.832C168.606 116.806 167.794 117.618 166.82 117.618Z" fill="#00515B"/>
</g>
<defs>
<filter id="filter0_f_338_9558" x="-51.9307" y="0" width="403.861" height="380.176" filterUnits="userSpaceOnUse" color-interpolation-filters="sRGB">
<feFlood flood-opacity="0" result="BackgroundImageFix"/>
<feBlend mode="normal" in="SourceGraphic" in2="BackgroundImageFix" result="shape"/>
<feGaussianBlur stdDeviation="50" result="effect1_foregroundBlur_338_9558"/>
</filter>
<filter id="filter1_f_338_9558" x="97.4849" y="-95.5811" width="529.161" height="490.918" filterUnits="userSpaceOnUse" color-interpolation-filters="sRGB">
<feFlood flood-opacity="0" result="BackgroundImageFix"/>
<feBlend mode="normal" in="SourceGraphic" in2="BackgroundImageFix" result="shape"/>
<feGaussianBlur stdDeviation="50" result="effect1_foregroundBlur_338_9558"/>
</filter>
<filter id="filter2_f_338_9558" x="-165.049" y="90.3076" width="608.219" height="350.732" filterUnits="userSpaceOnUse" color-interpolation-filters="sRGB">
<feFlood flood-opacity="0" result="BackgroundImageFix"/>
<feBlend mode="normal" in="SourceGraphic" in2="BackgroundImageFix" result="shape"/>
<feGaussianBlur stdDeviation="50" result="effect1_foregroundBlur_338_9558"/>
</filter>
<clipPath id="clip0_338_9558">
<path d="M0 8C0 3.58173 3.58172 0 8 0H312C316.418 0 320 3.58172 320 8V192C320 196.418 316.418 200 312 200H7.99999C3.58171 200 0 196.418 0 192V8Z" fill="white"/>
</clipPath>
<clipPath id="clip1_338_9558">
<rect width="358" height="225" fill="white" transform="translate(-29 -12.5)"/>
</clipPath>
</defs>
</svg>
