<svg width="277" height="43" viewBox="0 0 277 43" fill="none" xmlns="http://www.w3.org/2000/svg">
<path fill-rule="evenodd" clip-rule="evenodd" d="M3.66971 36.3136L13.9373 30.2489L21.0159 17.7759V5.74988C20.8292 5.74988 20.6425 5.87505 20.5008 6.12399L12.116 20.8989L3.73194 35.6737C3.59062 35.923 3.57722 36.1492 3.66971 36.3136" fill="#FF4724"/>
<path fill-rule="evenodd" clip-rule="evenodd" d="M21.016 5.74988V17.7759L28.0942 30.2489L38.3618 36.3136C38.4547 36.1492 38.4413 35.923 38.2999 35.6737L29.9155 20.8989L21.5307 6.12399C21.3891 5.8747 21.2024 5.74988 21.016 5.74988" fill="#9E1F63"/>
<path fill-rule="evenodd" clip-rule="evenodd" d="M38.3619 36.3136L28.0943 30.2489H13.9375L3.66992 36.3136C3.76241 36.4788 3.96149 36.5811 4.24482 36.5811H37.7867C38.07 36.5811 38.2691 36.4788 38.3619 36.3136" fill="#662D91"/>
<path fill-rule="evenodd" clip-rule="evenodd" d="M13.9375 30.2489H28.0943L21.016 17.7759L13.9375 30.2489Z" fill="white"/>
<path d="M50.3156 19.0641C50.7276 18.4504 51.2921 17.9518 52.0093 17.5683C52.7417 17.1848 53.5733 16.993 54.504 16.993C55.5874 16.993 56.5639 17.2615 57.4337 17.7984C58.3187 18.3354 59.0129 19.1025 59.5164 20.0997C60.0352 21.0815 60.2946 22.2245 60.2946 23.5285C60.2946 24.8326 60.0352 25.9909 59.5164 27.0034C59.0129 28.0006 58.3187 28.7754 57.4337 29.3277C56.5639 29.88 55.5874 30.1561 54.504 30.1561C53.558 30.1561 52.7264 29.972 52.0093 29.6038C51.3074 29.2203 50.7428 28.7294 50.3156 28.131V29.949H47.1113V12.9198H50.3156V19.0641ZM57.0217 23.5285C57.0217 22.7615 56.8615 22.1018 56.541 21.5495C56.2359 20.9818 55.8239 20.5523 55.3051 20.2608C54.8016 19.9693 54.2523 19.8235 53.6572 19.8235C53.0774 19.8235 52.5281 19.9769 52.0093 20.2838C51.5058 20.5753 51.0938 21.0048 50.7734 21.5725C50.4682 22.1401 50.3156 22.8075 50.3156 23.5746C50.3156 24.3416 50.4682 25.009 50.7734 25.5767C51.0938 26.1443 51.5058 26.5815 52.0093 26.8884C52.5281 27.1799 53.0774 27.3256 53.6572 27.3256C54.2523 27.3256 54.8016 27.1722 55.3051 26.8654C55.8239 26.5585 56.2359 26.1213 56.541 25.5536C56.8615 24.986 57.0217 24.311 57.0217 23.5285Z" fill="#0D1214"/>
<path d="M60.9981 23.5285C60.9981 22.2398 61.2498 21.0969 61.7533 20.0997C62.2721 19.1025 62.9664 18.3354 63.8361 17.7984C64.7211 17.2615 65.7053 16.993 66.7886 16.993C67.7347 16.993 68.5586 17.1848 69.2605 17.5683C69.9776 17.9518 70.5498 18.4351 70.9771 19.0181V17.2001H74.2042V29.949H70.9771V28.085C70.5651 28.6833 69.9929 29.1819 69.2605 29.5808C68.5434 29.9644 67.7118 30.1561 66.7657 30.1561C65.6977 30.1561 64.7211 29.88 63.8361 29.3277C62.9664 28.7754 62.2721 28.0006 61.7533 27.0034C61.2498 25.9909 60.9981 24.8326 60.9981 23.5285ZM70.9771 23.5746C70.9771 22.7921 70.8245 22.1248 70.5193 21.5725C70.2142 21.0048 69.8022 20.5753 69.2834 20.2838C68.7646 19.9769 68.2077 19.8235 67.6126 19.8235C67.0175 19.8235 66.4682 19.9693 65.9647 20.2608C65.4611 20.5523 65.0492 20.9818 64.7287 21.5495C64.4236 22.1018 64.271 22.7615 64.271 23.5285C64.271 24.2956 64.4236 24.9707 64.7287 25.5536C65.0492 26.1213 65.4611 26.5585 65.9647 26.8654C66.4835 27.1722 67.0328 27.3256 67.6126 27.3256C68.2077 27.3256 68.7646 27.1799 69.2834 26.8884C69.8022 26.5815 70.2142 26.152 70.5193 25.5997C70.8245 25.032 70.9771 24.357 70.9771 23.5746Z" fill="#0D1214"/>
<path d="M81.3849 30.1561C80.3473 30.1561 79.4165 29.972 78.5926 29.6038C77.7686 29.2203 77.1125 28.7064 76.6242 28.062C76.1512 27.4177 75.8918 26.7043 75.8461 25.9218H79.0732C79.1343 26.4128 79.3708 26.8193 79.7827 27.1415C80.21 27.4637 80.7364 27.6248 81.362 27.6248C81.9723 27.6248 82.4453 27.502 82.781 27.2566C83.132 27.0111 83.3074 26.6966 83.3074 26.3131C83.3074 25.8988 83.0938 25.592 82.6666 25.3926C82.2546 25.1778 81.5909 24.9476 80.6754 24.7022C79.7293 24.4721 78.9512 24.2343 78.3408 23.9888C77.7457 23.7433 77.227 23.3675 76.7845 22.8612C76.3572 22.3549 76.1436 21.6722 76.1436 20.8131C76.1436 20.1073 76.342 19.463 76.7387 18.88C77.1507 18.297 77.7305 17.8368 78.4781 17.4993C79.2411 17.1617 80.1337 16.993 81.156 16.993C82.6666 16.993 83.872 17.3765 84.7723 18.1436C85.6725 18.8954 86.1684 19.9156 86.26 21.2043H83.193C83.1472 20.698 82.9336 20.2991 82.5522 20.0076C82.1859 19.7008 81.69 19.5474 81.0645 19.5474C80.4846 19.5474 80.0345 19.6548 79.7141 19.8696C79.4089 20.0843 79.2563 20.3835 79.2563 20.767C79.2563 21.1966 79.4699 21.5265 79.8972 21.7566C80.3244 21.9714 80.9882 22.1938 81.8884 22.4239C82.8039 22.6541 83.5592 22.8919 84.1543 23.1373C84.7494 23.3828 85.2605 23.7663 85.6878 24.288C86.1303 24.7942 86.3591 25.4693 86.3744 26.3131C86.3744 27.0495 86.1684 27.7091 85.7564 28.2921C85.3597 28.8751 84.7799 29.3354 84.017 29.6729C83.2693 29.9951 82.3919 30.1561 81.3849 30.1561Z" fill="#0D1214"/>
<path d="M89.8286 15.6813C89.2641 15.6813 88.7911 15.5048 88.4096 15.152C88.0434 14.7838 87.8603 14.3312 87.8603 13.7943C87.8603 13.2573 88.0434 12.8124 88.4096 12.4595C88.7911 12.0913 89.2641 11.9072 89.8286 11.9072C90.3932 11.9072 90.8586 12.0913 91.2248 12.4595C91.6062 12.8124 91.797 13.2573 91.797 13.7943C91.797 14.3312 91.6062 14.7838 91.2248 15.152C90.8586 15.5048 90.3932 15.6813 89.8286 15.6813ZM91.4079 17.2001V29.949H88.2036V17.2001H91.4079Z" fill="#0D1214"/>
<path d="M92.9487 23.5746C92.9487 22.2552 93.2157 21.1046 93.7498 20.1227C94.2838 19.1255 95.0238 18.3584 95.9699 17.8214C96.9159 17.2691 97.9992 16.993 99.2199 16.993C100.792 16.993 102.088 17.3919 103.111 18.1896C104.148 18.9721 104.843 20.0767 105.194 21.5034H101.738C101.554 20.9511 101.242 20.5216 100.799 20.2147C100.372 19.8926 99.8379 19.7315 99.197 19.7315C98.2815 19.7315 97.5567 20.069 97.0227 20.744C96.4886 21.4037 96.2216 22.3472 96.2216 23.5746C96.2216 24.7866 96.4886 25.7301 97.0227 26.4051C97.5567 27.0648 98.2815 27.3946 99.197 27.3946C100.494 27.3946 101.341 26.8117 101.738 25.6457H105.194C104.843 27.0264 104.148 28.1234 103.111 28.9365C102.073 29.7496 100.776 30.1561 99.2199 30.1561C97.9992 30.1561 96.9159 29.8877 95.9699 29.3507C95.0238 28.7984 94.2838 28.0313 93.7498 27.0495C93.2157 26.0522 92.9487 24.8939 92.9487 23.5746Z" fill="#0D1214"/>
<path d="M110.569 23.5285C110.569 22.2398 110.82 21.0969 111.324 20.0997C111.843 19.1025 112.537 18.3354 113.407 17.7984C114.292 17.2615 115.276 16.993 116.359 16.993C117.305 16.993 118.129 17.1848 118.831 17.5683C119.548 17.9518 120.12 18.4351 120.548 19.0181V17.2001H123.775V29.949H120.548V28.085C120.136 28.6833 119.563 29.1819 118.831 29.5808C118.114 29.9644 117.282 30.1561 116.336 30.1561C115.268 30.1561 114.292 29.88 113.407 29.3277C112.537 28.7754 111.843 28.0006 111.324 27.0034C110.82 25.9909 110.569 24.8326 110.569 23.5285ZM120.548 23.5746C120.548 22.7921 120.395 22.1248 120.09 21.5725C119.785 21.0048 119.373 20.5753 118.854 20.2838C118.335 19.9769 117.778 19.8235 117.183 19.8235C116.588 19.8235 116.039 19.9693 115.535 20.2608C115.032 20.5523 114.62 20.9818 114.299 21.5495C113.994 22.1018 113.842 22.7615 113.842 23.5285C113.842 24.2956 113.994 24.9707 114.299 25.5536C114.62 26.1213 115.032 26.5585 115.535 26.8654C116.054 27.1722 116.603 27.3256 117.183 27.3256C117.778 27.3256 118.335 27.1799 118.854 26.8884C119.373 26.5815 119.785 26.152 120.09 25.5997C120.395 25.032 120.548 24.357 120.548 23.5746Z" fill="#0D1214"/>
<path d="M129.834 19.8465V26.0139C129.834 26.4435 129.933 26.758 130.131 26.9574C130.345 27.1415 130.696 27.2336 131.184 27.2336H132.672V29.949H130.658C127.957 29.949 126.607 28.6296 126.607 25.9909V19.8465H125.096V17.2001H126.607V14.0474H129.834V17.2001H132.672V19.8465H129.834Z" fill="#0D1214"/>
<path d="M137.906 19.8465V26.0139C137.906 26.4435 138.005 26.758 138.204 26.9574C138.417 27.1415 138.768 27.2336 139.257 27.2336H140.744V29.949H138.73C136.03 29.949 134.679 28.6296 134.679 25.9909V19.8465H133.169V17.2001H134.679V14.0474H137.906V17.2001H140.744V19.8465H137.906Z" fill="#0D1214"/>
<path d="M154.035 23.2984C154.035 23.7587 154.005 24.1729 153.944 24.5411H144.674C144.75 25.4616 145.071 26.1826 145.635 26.7043C146.2 27.2259 146.894 27.4867 147.718 27.4867C148.908 27.4867 149.755 26.9727 150.259 25.9449H153.715C153.348 27.1722 152.647 28.1847 151.609 28.9825C150.571 29.7649 149.297 30.1561 147.787 30.1561C146.566 30.1561 145.468 29.8877 144.491 29.3507C143.53 28.7984 142.774 28.0236 142.225 27.0264C141.691 26.0292 141.424 24.8786 141.424 23.5746C141.424 22.2552 141.691 21.0969 142.225 20.0997C142.759 19.1025 143.507 18.3354 144.468 17.7984C145.429 17.2615 146.536 16.993 147.787 16.993C148.992 16.993 150.068 17.2538 151.014 17.7754C151.975 18.297 152.715 19.0411 153.234 20.0076C153.768 20.9588 154.035 22.0557 154.035 23.2984ZM150.716 22.3779C150.701 21.5495 150.404 20.8898 149.824 20.3988C149.244 19.8926 148.534 19.6394 147.695 19.6394C146.902 19.6394 146.23 19.8849 145.681 20.3758C145.147 20.8514 144.819 21.5188 144.697 22.3779H150.716Z" fill="#0D1214"/>
<path d="M162.599 17.016C164.11 17.016 165.331 17.4993 166.261 18.4658C167.192 19.417 167.658 20.7517 167.658 22.47V29.949H164.453V22.9072C164.453 21.8947 164.202 21.1199 163.698 20.5829C163.194 20.0306 162.508 19.7545 161.638 19.7545C160.753 19.7545 160.051 20.0306 159.532 20.5829C159.029 21.1199 158.777 21.8947 158.777 22.9072V29.949H155.573V17.2001H158.777V18.788C159.204 18.2357 159.746 17.8061 160.402 17.4993C161.074 17.1771 161.806 17.016 162.599 17.016Z" fill="#0D1214"/>
<path d="M173.634 19.8465V26.0139C173.634 26.4435 173.733 26.758 173.932 26.9574C174.145 27.1415 174.496 27.2336 174.985 27.2336H176.472V29.949H174.458C171.758 29.949 170.407 28.6296 170.407 25.9909V19.8465H168.897V17.2001H170.407V14.0474H173.634V17.2001H176.472V19.8465H173.634Z" fill="#0D1214"/>
<path d="M179.601 15.6813C179.036 15.6813 178.563 15.5048 178.182 15.152C177.816 14.7838 177.633 14.3312 177.633 13.7943C177.633 13.2573 177.816 12.8124 178.182 12.4595C178.563 12.0913 179.036 11.9072 179.601 11.9072C180.166 11.9072 180.631 12.0913 180.997 12.4595C181.379 12.8124 181.569 13.2573 181.569 13.7943C181.569 14.3312 181.379 14.7838 180.997 15.152C180.631 15.5048 180.166 15.6813 179.601 15.6813ZM181.18 17.2001V29.949H177.976V17.2001H181.18Z" fill="#0D1214"/>
<path d="M189.175 30.1561C187.955 30.1561 186.856 29.8877 185.88 29.3507C184.903 28.7984 184.132 28.0236 183.568 27.0264C183.019 26.0292 182.744 24.8786 182.744 23.5746C182.744 22.2705 183.026 21.1199 183.591 20.1227C184.171 19.1255 184.956 18.3584 185.948 17.8214C186.94 17.2691 188.046 16.993 189.267 16.993C190.488 16.993 191.594 17.2691 192.586 17.8214C193.577 18.3584 194.356 19.1255 194.92 20.1227C195.5 21.1199 195.79 22.2705 195.79 23.5746C195.79 24.8786 195.492 26.0292 194.897 27.0264C194.317 28.0236 193.524 28.7984 192.517 29.3507C191.525 29.8877 190.411 30.1561 189.175 30.1561ZM189.175 27.3486C189.755 27.3486 190.297 27.2105 190.8 26.9344C191.319 26.6429 191.731 26.2133 192.036 25.6457C192.341 25.078 192.494 24.3877 192.494 23.5746C192.494 22.3626 192.174 21.4344 191.533 20.7901C190.907 20.1304 190.137 19.8005 189.221 19.8005C188.306 19.8005 187.535 20.1304 186.909 20.7901C186.299 21.4344 185.994 22.3626 185.994 23.5746C185.994 24.7866 186.292 25.7224 186.887 26.3821C187.497 27.0264 188.26 27.3486 189.175 27.3486Z" fill="#0D1214"/>
<path d="M204.366 17.016C205.876 17.016 207.097 17.4993 208.028 18.4658C208.959 19.417 209.424 20.7517 209.424 22.47V29.949H206.22V22.9072C206.22 21.8947 205.968 21.1199 205.464 20.5829C204.961 20.0306 204.274 19.7545 203.405 19.7545C202.52 19.7545 201.818 20.0306 201.299 20.5829C200.795 21.1199 200.544 21.8947 200.544 22.9072V29.949H197.339V17.2001H200.544V18.788C200.971 18.2357 201.512 17.8061 202.169 17.4993C202.84 17.1771 203.572 17.016 204.366 17.016Z" fill="#0D1214"/>
<path d="M220.053 19.8465V26.0139C220.053 26.4435 220.153 26.758 220.351 26.9574C220.564 27.1415 220.915 27.2336 221.404 27.2336H222.891V29.949H220.877C218.177 29.949 216.826 28.6296 216.826 25.9909V19.8465H215.316V17.2001H216.826V14.0474H220.053V17.2001H222.891V19.8465H220.053Z" fill="#0D1214"/>
<path d="M230.025 30.1561C228.805 30.1561 227.706 29.8877 226.73 29.3507C225.753 28.7984 224.982 28.0236 224.418 27.0264C223.869 26.0292 223.594 24.8786 223.594 23.5746C223.594 22.2705 223.876 21.1199 224.441 20.1227C225.021 19.1255 225.806 18.3584 226.798 17.8214C227.79 17.2691 228.896 16.993 230.117 16.993C231.338 16.993 232.444 17.2691 233.436 17.8214C234.427 18.3584 235.206 19.1255 235.77 20.1227C236.35 21.1199 236.64 22.2705 236.64 23.5746C236.64 24.8786 236.342 26.0292 235.747 27.0264C235.167 28.0236 234.374 28.7984 233.367 29.3507C232.375 29.8877 231.261 30.1561 230.025 30.1561ZM230.025 27.3486C230.605 27.3486 231.147 27.2105 231.65 26.9344C232.169 26.6429 232.581 26.2133 232.886 25.6457C233.191 25.078 233.344 24.3877 233.344 23.5746C233.344 22.3626 233.024 21.4344 232.383 20.7901C231.757 20.1304 230.987 19.8005 230.071 19.8005C229.156 19.8005 228.385 20.1304 227.76 20.7901C227.149 21.4344 226.844 22.3626 226.844 23.5746C226.844 24.7866 227.142 25.7224 227.737 26.3821C228.347 27.0264 229.11 27.3486 230.025 27.3486Z" fill="#0D1214"/>
<path d="M245.696 29.949L241.394 24.5181V29.949H238.189V12.9198H241.394V22.608L245.651 17.2001H249.816L244.232 23.5976L249.862 29.949H245.696Z" fill="#0D1214"/>
<path d="M262.541 23.2984C262.541 23.7587 262.511 24.1729 262.45 24.5411H253.18C253.257 25.4616 253.577 26.1826 254.142 26.7043C254.706 27.2259 255.4 27.4867 256.224 27.4867C257.415 27.4867 258.261 26.9727 258.765 25.9449H262.221C261.855 27.1722 261.153 28.1847 260.115 28.9825C259.078 29.7649 257.804 30.1561 256.293 30.1561C255.072 30.1561 253.974 29.8877 252.997 29.3507C252.036 28.7984 251.281 28.0236 250.731 27.0264C250.197 26.0292 249.93 24.8786 249.93 23.5746C249.93 22.2552 250.197 21.0969 250.731 20.0997C251.265 19.1025 252.013 18.3354 252.974 17.7984C253.936 17.2615 255.042 16.993 256.293 16.993C257.498 16.993 258.574 17.2538 259.52 17.7754C260.482 18.297 261.222 19.0411 261.74 20.0076C262.274 20.9588 262.541 22.0557 262.541 23.2984ZM259.223 22.3779C259.207 21.5495 258.91 20.8898 258.33 20.3988C257.75 19.8926 257.041 19.6394 256.202 19.6394C255.408 19.6394 254.737 19.8849 254.187 20.3758C253.653 20.8514 253.325 21.5188 253.203 22.3779H259.223Z" fill="#0D1214"/>
<path d="M271.106 17.016C272.616 17.016 273.837 17.4993 274.768 18.4658C275.698 19.417 276.164 20.7517 276.164 22.47V29.949H272.96V22.9072C272.96 21.8947 272.708 21.1199 272.204 20.5829C271.701 20.0306 271.014 19.7545 270.144 19.7545C269.259 19.7545 268.558 20.0306 268.039 20.5829C267.535 21.1199 267.283 21.8947 267.283 22.9072V29.949H264.079V17.2001H267.283V18.788C267.711 18.2357 268.252 17.8061 268.908 17.4993C269.58 17.1771 270.312 17.016 271.106 17.016Z" fill="#0D1214"/>
</svg>
