<svg width="1420" height="215" viewBox="0 0 1420 215" fill="none" xmlns="http://www.w3.org/2000/svg">
<path fill-rule="evenodd" clip-rule="evenodd" d="M18.7271 183.261L71.5214 152.244L107.918 88.4534V26.9491C106.958 26.9491 105.998 27.5893 105.27 28.8624L62.1566 104.425L19.0471 179.988C18.3205 181.263 18.2515 182.42 18.7271 183.261" fill="#FF4724"/>
<path fill-rule="evenodd" clip-rule="evenodd" d="M107.918 26.9493V88.4536L144.313 152.244L197.108 183.261C197.585 182.42 197.516 181.263 196.789 179.988L153.678 104.425L110.565 28.8626C109.837 27.5877 108.877 26.9493 107.918 26.9493" fill="#9E1F63"/>
<path fill-rule="evenodd" clip-rule="evenodd" d="M197.108 183.261L144.314 152.244H71.5222L18.7279 183.261C19.2035 184.106 20.2271 184.629 21.6839 184.629H194.15C195.607 184.629 196.631 184.106 197.108 183.261" fill="#662D91"/>
<path fill-rule="evenodd" clip-rule="evenodd" d="M71.5219 152.244H144.313L107.918 88.4538L71.5219 152.244Z" fill="white"/>
<path d="M258.572 95.0423C260.69 91.9038 263.593 89.3538 267.281 87.3923C271.047 85.4308 275.322 84.45 280.108 84.45C285.679 84.45 290.7 85.8231 295.172 88.5692C299.722 91.3154 303.292 95.2385 305.881 100.338C308.549 105.36 309.882 111.205 309.882 117.875C309.882 124.544 308.549 130.468 305.881 135.646C303.292 140.746 299.722 144.709 295.172 147.533C290.7 150.358 285.679 151.77 280.108 151.77C275.244 151.77 270.968 150.829 267.281 148.945C263.672 146.984 260.769 144.473 258.572 141.413V150.711H242.096V63.6184H258.572V95.0423ZM293.053 117.875C293.053 113.952 292.23 110.578 290.582 107.753C289.013 104.85 286.895 102.653 284.227 101.162C281.638 99.6715 278.814 98.9262 275.754 98.9262C272.773 98.9262 269.948 99.7108 267.281 101.28C264.692 102.771 262.573 104.968 260.926 107.871C259.357 110.774 258.572 114.187 258.572 118.11C258.572 122.033 259.357 125.446 260.926 128.349C262.573 131.252 264.692 133.489 267.281 135.058C269.948 136.549 272.773 137.294 275.754 137.294C278.814 137.294 281.638 136.509 284.227 134.94C286.895 133.371 289.013 131.135 290.582 128.232C292.23 125.329 293.053 121.876 293.053 117.875Z" fill="white"/>
<path d="M313.499 117.875C313.499 111.284 314.794 105.438 317.383 100.338C320.05 95.2385 323.62 91.3154 328.092 88.5692C332.643 85.8231 337.703 84.45 343.273 84.45C348.138 84.45 352.374 85.4308 355.983 87.3923C359.671 89.3538 362.613 91.8254 364.81 94.8069V85.5092H381.403V150.711H364.81V141.178C362.691 144.238 359.749 146.788 355.983 148.828C352.296 150.789 348.02 151.77 343.156 151.77C337.664 151.77 332.643 150.358 328.092 147.533C323.62 144.709 320.05 140.746 317.383 135.646C314.794 130.468 313.499 124.544 313.499 117.875ZM364.81 118.11C364.81 114.109 364.025 110.695 362.456 107.871C360.887 104.968 358.768 102.771 356.101 101.28C353.433 99.7108 350.57 98.9262 347.51 98.9262C344.45 98.9262 341.626 99.6715 339.037 101.162C336.448 102.653 334.329 104.85 332.682 107.753C331.113 110.578 330.328 113.952 330.328 117.875C330.328 121.798 331.113 125.25 332.682 128.232C334.329 131.135 336.448 133.371 339.037 134.94C341.704 136.509 344.529 137.294 347.51 137.294C350.57 137.294 353.433 136.549 356.101 135.058C358.768 133.489 360.887 131.292 362.456 128.467C364.025 125.564 364.81 122.112 364.81 118.11Z" fill="white"/>
<path d="M418.325 151.77C412.99 151.77 408.204 150.829 403.967 148.945C399.73 146.984 396.357 144.355 393.846 141.06C391.414 137.765 390.08 134.116 389.845 130.115H406.438C406.752 132.625 407.968 134.705 410.087 136.352C412.283 138 414.99 138.824 418.207 138.824C421.345 138.824 423.777 138.196 425.503 136.941C427.308 135.685 428.21 134.077 428.21 132.115C428.21 129.997 427.112 128.428 424.915 127.408C422.797 126.309 419.384 125.132 414.676 123.877C409.812 122.7 405.811 121.484 402.673 120.229C399.613 118.973 396.945 117.051 394.67 114.462C392.473 111.872 391.375 108.381 391.375 103.987C391.375 100.378 392.395 97.0823 394.435 94.1008C396.553 91.1192 399.534 88.7654 403.379 87.0392C407.301 85.3131 411.891 84.45 417.148 84.45C424.915 84.45 431.113 86.4115 435.742 90.3346C440.371 94.1792 442.921 99.3969 443.391 105.988H427.622C427.386 103.398 426.288 101.358 424.326 99.8677C422.444 98.2985 419.894 97.5139 416.677 97.5139C413.696 97.5139 411.381 98.0631 409.734 99.1615C408.165 100.26 407.38 101.79 407.38 103.752C407.38 105.948 408.478 107.635 410.675 108.812C412.872 109.911 416.285 111.048 420.914 112.225C425.621 113.402 429.505 114.619 432.564 115.874C435.624 117.129 438.252 119.091 440.449 121.759C442.724 124.348 443.901 127.8 443.98 132.115C443.98 135.882 442.921 139.255 440.802 142.237C438.762 145.219 435.781 147.572 431.858 149.299C428.014 150.946 423.503 151.77 418.325 151.77Z" fill="white"/>
<path d="M461.741 77.7415C458.838 77.7415 456.406 76.8392 454.444 75.0346C452.561 73.1515 451.62 70.8369 451.62 68.0907C451.62 65.3446 452.561 63.0692 454.444 61.2646C456.406 59.3815 458.838 58.4399 461.741 58.4399C464.644 58.4399 467.037 59.3815 468.92 61.2646C470.881 63.0692 471.862 65.3446 471.862 68.0907C471.862 70.8369 470.881 73.1515 468.92 75.0346C467.037 76.8392 464.644 77.7415 461.741 77.7415ZM469.861 85.5092V150.711H453.385V85.5092H469.861Z" fill="white"/>
<path d="M477.784 118.11C477.784 111.362 479.157 105.478 481.903 100.456C484.649 95.3562 488.454 91.4331 493.318 88.6869C498.182 85.8623 503.753 84.45 510.029 84.45C518.11 84.45 524.779 86.49 530.035 90.57C535.37 94.5715 538.94 100.221 540.745 107.518H522.974C522.033 104.693 520.424 102.496 518.149 100.927C515.952 99.2792 513.207 98.4554 509.911 98.4554C505.204 98.4554 501.477 100.182 498.731 103.634C495.985 107.008 494.612 111.833 494.612 118.11C494.612 124.309 495.985 129.134 498.731 132.586C501.477 135.96 505.204 137.647 509.911 137.647C516.58 137.647 520.934 134.665 522.974 128.702H540.745C538.94 135.764 535.37 141.374 530.035 145.532C524.7 149.691 518.032 151.77 510.029 151.77C503.753 151.77 498.182 150.397 493.318 147.651C488.454 144.826 484.649 140.903 481.903 135.882C479.157 130.782 477.784 124.858 477.784 118.11Z" fill="white"/>
<path d="M568.382 117.875C568.382 111.284 569.677 105.438 572.266 100.338C574.933 95.2385 578.503 91.3154 582.975 88.5692C587.525 85.8231 592.586 84.45 598.156 84.45C603.02 84.45 607.257 85.4308 610.866 87.3923C614.553 89.3538 617.496 91.8254 619.692 94.8069V85.5092H636.286V150.711H619.692V141.178C617.574 144.238 614.632 146.788 610.866 148.828C607.179 150.789 602.903 151.77 598.038 151.77C592.546 151.77 587.525 150.358 582.975 147.533C578.503 144.709 574.933 140.746 572.266 135.646C569.677 130.468 568.382 124.544 568.382 117.875ZM619.692 118.11C619.692 114.109 618.908 110.695 617.339 107.871C615.769 104.968 613.651 102.771 610.984 101.28C608.316 99.7108 605.453 98.9262 602.393 98.9262C599.333 98.9262 596.509 99.6715 593.919 101.162C591.33 102.653 589.212 104.85 587.565 107.753C585.995 110.578 585.211 113.952 585.211 117.875C585.211 121.798 585.995 125.25 587.565 128.232C589.212 131.135 591.33 133.371 593.919 134.94C596.587 136.509 599.411 137.294 602.393 137.294C605.453 137.294 608.316 136.549 610.984 135.058C613.651 133.489 615.769 131.292 617.339 128.467C618.908 125.564 619.692 122.112 619.692 118.11Z" fill="white"/>
<path d="M667.441 99.0439V130.585C667.441 132.782 667.951 134.391 668.971 135.411C670.069 136.352 671.874 136.823 674.384 136.823H682.034V150.711H671.677C657.791 150.711 650.847 143.963 650.847 130.468V99.0439H643.08V85.5092H650.847V69.3853H667.441V85.5092H682.034V99.0439H667.441Z" fill="white"/>
<path d="M708.948 99.0439V130.585C708.948 132.782 709.457 134.391 710.477 135.411C711.576 136.352 713.38 136.823 715.891 136.823H723.54V150.711H713.184C699.297 150.711 692.354 143.963 692.354 130.468V99.0439H684.587V85.5092H692.354V69.3853H708.948V85.5092H723.54V99.0439H708.948Z" fill="white"/>
<path d="M791.879 116.698C791.879 119.052 791.722 121.17 791.408 123.053H743.746C744.138 127.761 745.786 131.449 748.689 134.116C751.592 136.784 755.161 138.118 759.398 138.118C765.518 138.118 769.872 135.489 772.461 130.232H790.231C788.348 136.509 784.739 141.688 779.404 145.768C774.069 149.769 767.518 151.77 759.751 151.77C753.475 151.77 747.826 150.397 742.805 147.651C737.862 144.826 733.978 140.864 731.154 135.764C728.408 130.664 727.035 124.779 727.035 118.11C727.035 111.362 728.408 105.438 731.154 100.338C733.9 95.2385 737.744 91.3154 742.687 88.5692C747.63 85.8231 753.318 84.45 759.751 84.45C765.949 84.45 771.48 85.7838 776.345 88.4515C781.287 91.1192 785.093 94.9246 787.76 99.8677C790.506 104.732 791.879 110.342 791.879 116.698ZM774.815 111.99C774.736 107.753 773.206 104.379 770.225 101.868C767.244 99.2792 763.596 97.9846 759.28 97.9846C755.201 97.9846 751.749 99.24 748.924 101.751C746.178 104.183 744.491 107.596 743.864 111.99H774.815Z" fill="white"/>
<path d="M835.915 84.5677C843.682 84.5677 849.959 87.0392 854.744 91.9823C859.53 96.8469 861.923 103.673 861.923 112.461V150.711H845.447V114.697C845.447 109.518 844.153 105.556 841.564 102.81C838.975 99.9854 835.444 98.5731 830.972 98.5731C826.422 98.5731 822.813 99.9854 820.145 102.81C817.556 105.556 816.262 109.518 816.262 114.697V150.711H799.786V85.5092H816.262V93.63C818.458 90.8054 821.244 88.6085 824.617 87.0392C828.069 85.3915 831.835 84.5677 835.915 84.5677Z" fill="white"/>
<path d="M892.654 99.0439V130.585C892.654 132.782 893.164 134.391 894.184 135.411C895.283 136.352 897.087 136.823 899.598 136.823H907.247V150.711H896.891C883.004 150.711 876.061 143.963 876.061 130.468V99.0439H868.294V85.5092H876.061V69.3853H892.654V85.5092H907.247V99.0439H892.654Z" fill="white"/>
<path d="M923.334 77.7415C920.431 77.7415 917.999 76.8392 916.038 75.0346C914.155 73.1515 913.213 70.8369 913.213 68.0907C913.213 65.3446 914.155 63.0692 916.038 61.2646C917.999 59.3815 920.431 58.4399 923.334 58.4399C926.237 58.4399 928.63 59.3815 930.513 61.2646C932.474 63.0692 933.455 65.3446 933.455 68.0907C933.455 70.8369 932.474 73.1515 930.513 75.0346C928.63 76.8392 926.237 77.7415 923.334 77.7415ZM931.454 85.5092V150.711H914.978V85.5092H931.454Z" fill="white"/>
<path d="M972.564 151.77C966.287 151.77 960.638 150.397 955.617 147.651C950.596 144.826 946.634 140.864 943.731 135.764C940.907 130.664 939.494 124.779 939.494 118.11C939.494 111.441 940.946 105.556 943.849 100.456C946.83 95.3562 950.871 91.4331 955.97 88.6869C961.07 85.8623 966.758 84.45 973.034 84.45C979.311 84.45 984.999 85.8623 990.099 88.6869C995.198 91.4331 999.2 95.3562 1002.1 100.456C1005.08 105.556 1006.57 111.441 1006.57 118.11C1006.57 124.779 1005.04 130.664 1001.98 135.764C999.003 140.864 994.924 144.826 989.746 147.651C984.646 150.397 978.919 151.77 972.564 151.77ZM972.564 137.412C975.545 137.412 978.33 136.705 980.919 135.293C983.587 133.802 985.705 131.605 987.274 128.702C988.843 125.799 989.628 122.269 989.628 118.11C989.628 111.912 987.98 107.165 984.685 103.869C981.468 100.495 977.506 98.8085 972.799 98.8085C968.092 98.8085 964.13 100.495 960.913 103.869C957.775 107.165 956.206 111.912 956.206 118.11C956.206 124.309 957.736 129.095 960.795 132.469C963.934 135.764 967.856 137.412 972.564 137.412Z" fill="white"/>
<path d="M1050.67 84.5677C1058.44 84.5677 1064.71 87.0392 1069.5 91.9823C1074.29 96.8469 1076.68 103.673 1076.68 112.461V150.711H1060.2V114.697C1060.2 109.518 1058.91 105.556 1056.32 102.81C1053.73 99.9854 1050.2 98.5731 1045.73 98.5731C1041.18 98.5731 1037.57 99.9854 1034.9 102.81C1032.31 105.556 1031.02 109.518 1031.02 114.697V150.711H1014.54V85.5092H1031.02V93.63C1033.21 90.8054 1036 88.6085 1039.37 87.0392C1042.82 85.3915 1046.59 84.5677 1050.67 84.5677Z" fill="white"/>
<path d="M1131.33 99.0439V130.585C1131.33 132.782 1131.84 134.391 1132.86 135.411C1133.96 136.352 1135.77 136.823 1138.28 136.823H1145.93V150.711H1135.57C1121.68 150.711 1114.74 143.963 1114.74 130.468V99.0439H1106.97V85.5092H1114.74V69.3853H1131.33V85.5092H1145.93V99.0439H1131.33Z" fill="white"/>
<path d="M1182.61 151.77C1176.33 151.77 1170.68 150.397 1165.66 147.651C1160.64 144.826 1156.68 140.864 1153.77 135.764C1150.95 130.664 1149.54 124.779 1149.54 118.11C1149.54 111.441 1150.99 105.556 1153.89 100.456C1156.87 95.3562 1160.91 91.4331 1166.01 88.6869C1171.11 85.8623 1176.8 84.45 1183.08 84.45C1189.35 84.45 1195.04 85.8623 1200.14 88.6869C1205.24 91.4331 1209.24 95.3562 1212.15 100.456C1215.13 105.556 1216.62 111.441 1216.62 118.11C1216.62 124.779 1215.09 130.664 1212.03 135.764C1209.05 140.864 1204.97 144.826 1199.79 147.651C1194.69 150.397 1188.96 151.77 1182.61 151.77ZM1182.61 137.412C1185.59 137.412 1188.37 136.705 1190.96 135.293C1193.63 133.802 1195.75 131.605 1197.32 128.702C1198.89 125.799 1199.67 122.269 1199.67 118.11C1199.67 111.912 1198.02 107.165 1194.73 103.869C1191.51 100.495 1187.55 98.8085 1182.84 98.8085C1178.14 98.8085 1174.17 100.495 1170.96 103.869C1167.82 107.165 1166.25 111.912 1166.25 118.11C1166.25 124.309 1167.78 129.095 1170.84 132.469C1173.98 135.764 1177.9 137.412 1182.61 137.412Z" fill="white"/>
<path d="M1263.18 150.711L1241.06 122.935V150.711H1224.58V63.6184H1241.06V113.167L1262.95 85.5092H1284.37L1255.65 118.228L1284.6 150.711H1263.18Z" fill="white"/>
<path d="M1349.8 116.698C1349.8 119.052 1349.64 121.17 1349.33 123.053H1301.67C1302.06 127.761 1303.71 131.449 1306.61 134.116C1309.51 136.784 1313.08 138.118 1317.32 138.118C1323.44 138.118 1327.79 135.489 1330.38 130.232H1348.15C1346.27 136.509 1342.66 141.688 1337.32 145.768C1331.99 149.769 1325.44 151.77 1317.67 151.77C1311.39 151.77 1305.75 150.397 1300.72 147.651C1295.78 144.826 1291.9 140.864 1289.07 135.764C1286.33 130.664 1284.95 124.779 1284.95 118.11C1284.95 111.362 1286.33 105.438 1289.07 100.338C1291.82 95.2385 1295.66 91.3154 1300.61 88.5692C1305.55 85.8231 1311.24 84.45 1317.67 84.45C1323.87 84.45 1329.4 85.7838 1334.26 88.4515C1339.21 91.1192 1343.01 94.9246 1345.68 99.8677C1348.43 104.732 1349.8 110.342 1349.8 116.698ZM1332.73 111.99C1332.66 107.753 1331.13 104.379 1328.14 101.868C1325.16 99.2792 1321.52 97.9846 1317.2 97.9846C1313.12 97.9846 1309.67 99.24 1306.84 101.751C1304.1 104.183 1302.41 107.596 1301.78 111.99H1332.73Z" fill="white"/>
<path d="M1393.83 84.5677C1401.6 84.5677 1407.88 87.0392 1412.66 91.9823C1417.45 96.8469 1419.84 103.673 1419.84 112.461V150.711H1403.37V114.697C1403.37 109.518 1402.07 105.556 1399.48 102.81C1396.89 99.9854 1393.36 98.5731 1388.89 98.5731C1384.34 98.5731 1380.73 99.9854 1378.06 102.81C1375.48 105.556 1374.18 109.518 1374.18 114.697V150.711H1357.71V85.5092H1374.18V93.63C1376.38 90.8054 1379.16 88.6085 1382.54 87.0392C1385.99 85.3915 1389.75 84.5677 1393.83 84.5677Z" fill="white"/>
</svg>
