<svg width="50" height="50" viewBox="0 0 50 50" fill="none" xmlns="http://www.w3.org/2000/svg">
<path fill-rule="evenodd" clip-rule="evenodd" d="M3.66971 36.3136L13.9373 30.2489L21.0159 17.7759V5.74988C20.8292 5.74988 20.6425 5.87505 20.5008 6.12399L12.116 20.8989L3.73194 35.6737C3.59062 35.923 3.57722 36.1492 3.66971 36.3136" fill="#FF4724"/>
<path fill-rule="evenodd" clip-rule="evenodd" d="M21.016 5.74988V17.7759L28.0942 30.2489L38.3618 36.3136C38.4547 36.1492 38.4413 35.923 38.2999 35.6737L29.9155 20.8989L21.5307 6.12399C21.3891 5.8747 21.2024 5.74988 21.016 5.74988" fill="#9E1F63"/>
<path fill-rule="evenodd" clip-rule="evenodd" d="M38.3619 36.3136L28.0943 30.2489H13.9375L3.66992 36.3136C3.76241 36.4788 3.96149 36.5811 4.24482 36.5811H37.7867C38.07 36.5811 38.2691 36.4788 38.3619 36.3136" fill="#662D91"/>
<path fill-rule="evenodd" clip-rule="evenodd" d="M13.9375 30.2489H28.0943L21.016 17.7759L13.9375 30.2489Z" fill="white"/>
</svg>
