<svg width="39" height="39" viewBox="0 0 39 39" fill="none" xmlns="http://www.w3.org/2000/svg">
<path fill-rule="evenodd" clip-rule="evenodd" d="M32.3437 11.0303L33.1052 9.16327C33.1052 9.16327 32.136 8.12604 30.9591 6.95051C29.7823 5.77497 27.2901 6.46646 27.2901 6.46646L24.4518 3.25H19.4675H14.4831L11.6448 6.46646C11.6448 6.46646 9.15265 5.77497 7.97579 6.95051C6.79893 8.12604 5.82975 9.16327 5.82975 9.16327L6.59125 11.0303L5.62207 13.7963C5.62207 13.7963 8.47249 24.5804 8.80651 25.8973C9.46417 28.4904 9.91414 29.4931 11.7833 30.8069C13.6524 32.1207 17.0445 34.4026 17.5983 34.7484C18.1522 35.0941 18.8444 35.6831 19.4675 35.6831C20.0905 35.6831 20.7828 35.0941 21.3366 34.7484C21.8904 34.4026 25.2825 32.1207 27.1517 30.8069C29.0208 29.4931 29.4708 28.4904 30.1284 25.8973C30.4624 24.5804 33.3129 13.7963 33.3129 13.7963L32.3437 11.0303Z" fill="url(#paint0_linear_762_1281)"/>
<path d="M22.9979 9.09406C23.4133 9.09406 26.4939 8.50629 26.4939 8.50629C26.4939 8.50629 30.1446 12.9145 30.1446 13.8567C30.1446 14.6357 29.8307 14.9406 29.4609 15.2996C29.3835 15.3749 29.3036 15.4525 29.2236 15.5373L26.4862 18.4408C26.4591 18.4696 26.4289 18.4999 26.3969 18.532C26.1237 18.8064 25.7214 19.2105 26.0053 19.8816C26.0242 19.9265 26.0438 19.9721 26.0636 20.0184C26.3748 20.7455 26.7591 21.6431 26.27 22.5527C25.7497 23.5203 24.8584 24.166 24.2873 24.0593C23.7161 23.9524 22.3749 23.2523 21.8816 22.9325C21.3884 22.6127 19.8251 21.3248 19.8251 20.8321C19.8251 20.4211 20.9494 19.7375 21.4956 19.4053C21.6043 19.3392 21.69 19.287 21.7396 19.2537C21.796 19.2157 21.8903 19.1572 22.0063 19.0852C22.5049 18.7758 23.4052 18.2171 23.4278 17.9694C23.4556 17.664 23.445 17.5744 23.0432 16.8199C22.9577 16.6594 22.8577 16.4875 22.7544 16.3099C22.3717 15.6523 21.9432 14.9158 22.0381 14.3883C22.1451 13.7928 23.0793 13.4514 23.8705 13.1622C23.9694 13.126 24.0661 13.0907 24.1586 13.0558C24.3896 12.9687 24.6797 12.8601 24.9829 12.7467C25.7729 12.4511 26.6506 12.1227 26.7953 12.0561C26.9958 11.9637 26.944 11.8758 26.3371 11.8184C26.2568 11.8108 26.1569 11.8002 26.0424 11.788C25.2911 11.7083 23.9055 11.5612 23.2318 11.7488C23.0993 11.7856 22.9508 11.8258 22.7951 11.8679C22.0382 12.0727 21.1107 12.3235 21.0216 12.4682C21.006 12.4935 20.9907 12.5152 20.9762 12.5358C20.891 12.6568 20.8354 12.7357 20.9297 13.25C20.9578 13.4032 21.0156 13.7045 21.087 14.0769C21.296 15.1676 21.6221 16.8689 21.6632 17.2511C21.669 17.3046 21.6753 17.3562 21.6814 17.4058C21.7337 17.8322 21.7685 18.116 21.2728 18.2292C21.2315 18.2386 21.1881 18.2485 21.1431 18.2589C20.5837 18.3871 19.7636 18.5751 19.4673 18.5751C19.1709 18.5751 18.3502 18.3869 17.7909 18.2587C17.7461 18.2484 17.7029 18.2386 17.6619 18.2292C17.1661 18.116 17.2009 17.8322 17.2532 17.4058C17.2593 17.3562 17.2656 17.3046 17.2714 17.2511C17.3126 16.8683 17.6395 15.1629 17.8485 14.0724C17.9195 13.702 17.9769 13.4026 18.0049 13.25C18.0992 12.7358 18.0436 12.6568 17.9584 12.5358C17.944 12.5153 17.9286 12.4935 17.913 12.4682C17.8239 12.3236 16.8965 12.0727 16.1397 11.868C15.9839 11.8258 15.8353 11.7857 15.7028 11.7488C15.0292 11.5612 13.6437 11.7083 12.8923 11.788C12.7777 11.8002 12.6778 11.8108 12.5975 11.8184C11.9907 11.8758 11.9389 11.9637 12.1392 12.0561C12.284 12.1227 13.1613 12.451 13.9512 12.7465C14.2545 12.86 14.5449 12.9686 14.776 13.0558C14.8686 13.0907 14.9653 13.1261 15.0642 13.1622C15.8554 13.4514 16.7895 13.7929 16.8966 14.3883C16.9914 14.9158 16.563 15.652 16.1804 16.3096C16.077 16.4873 15.977 16.6593 15.8915 16.8199C15.4896 17.5744 15.479 17.664 15.5069 17.9694C15.5294 18.217 16.4293 18.7755 16.928 19.085C17.0442 19.1571 17.1386 19.2157 17.195 19.2537C17.2445 19.287 17.3302 19.3391 17.4388 19.4051C17.9849 19.7373 19.1095 20.4211 19.1095 20.8321C19.1095 21.3248 17.5463 22.6127 17.053 22.9325C16.5598 23.2523 15.2185 23.9524 14.6474 24.0593C14.0763 24.166 13.185 23.5203 12.6647 22.5527C12.1756 21.6432 12.5598 20.7456 12.871 20.0185C12.8908 19.9722 12.9103 19.9266 12.9293 19.8816C13.2133 19.2104 12.8108 18.8063 12.5376 18.5319C12.5056 18.4998 12.4754 18.4695 12.4483 18.4408L9.71097 15.5373C9.63101 15.4525 9.55113 15.3749 9.4737 15.2997C9.10396 14.9406 8.79004 14.6357 8.79004 13.8567C8.79004 12.9145 12.4408 8.50629 12.4408 8.50629C12.4408 8.50629 15.5214 9.09406 15.9368 9.09406C16.2682 9.09406 16.9082 8.87391 17.5754 8.64441C17.7443 8.58631 17.9149 8.5276 18.0828 8.47172C18.9135 8.19512 19.4673 8.19312 19.4673 8.19312C19.4673 8.19312 20.0211 8.19512 20.8519 8.47172C21.0197 8.5276 21.1904 8.58631 21.3593 8.64441C22.0265 8.87391 22.6665 9.09406 22.9979 9.09406Z" fill="white"/>
<path d="M22.4691 24.6865C23.1203 25.0217 23.5823 25.2595 23.757 25.3687C23.983 25.51 23.8452 25.7765 23.6393 25.9218C23.4335 26.0672 20.6671 28.2069 20.3986 28.4434C20.3643 28.4737 20.3278 28.5065 20.2899 28.5406C20.0312 28.7735 19.7012 29.0706 19.4673 29.0706C19.2333 29.0706 18.9031 28.7733 18.6444 28.5403C18.6066 28.5063 18.5703 28.4736 18.536 28.4434C18.2675 28.2069 15.5012 26.0672 15.2953 25.9218C15.0894 25.7765 14.9516 25.51 15.1776 25.3687C15.3524 25.2594 15.8149 25.0214 16.4667 24.6859C16.6578 24.5875 16.8651 24.4808 17.0863 24.3665C18.0617 23.8623 19.2776 23.4336 19.4673 23.4336C19.6571 23.4336 20.8728 23.8623 21.8484 24.3665C22.07 24.4811 22.2777 24.588 22.4691 24.6865Z" fill="white"/>
<defs>
<linearGradient id="paint0_linear_762_1281" x1="5.62207" y1="35.9119" x2="33.3129" y2="35.9119" gradientUnits="userSpaceOnUse">
<stop stop-color="#FF5601"/>
<stop offset="0.5" stop-color="#FF4000"/>
<stop offset="1" stop-color="#FF1F01"/>
</linearGradient>
</defs>
</svg>
