<svg width="378" height="65" viewBox="0 0 378 65" fill="none" xmlns="http://www.w3.org/2000/svg">
  <!-- Brave Logo Icon (Paths 1-3) -->
  <path fill-rule="evenodd" clip-rule="evenodd" d="M56.0413 15.5606L57.5987 11.8266C57.5987 11.8266 55.6166 9.75209 53.2098 7.40103C50.803 5.04996 45.7062 6.43294 45.7062 6.43294L39.9016 1.52588e-05H29.708H19.5145L13.7098 6.43294C13.7098 6.43294 8.61305 5.04996 6.20624 7.40103C3.79943 9.75209 1.81735 11.8266 1.81735 11.8266L3.3747 15.5606L1.39262 21.0925C1.39262 21.0925 7.22206 42.6608 7.90516 45.2946C9.25015 50.4808 10.1704 52.4861 13.993 55.1138C17.8156 57.7415 24.7528 62.3053 25.8854 62.9968C27.0181 63.6883 28.4338 64.8661 29.708 64.8661C30.9822 64.8661 32.398 63.6883 33.5306 62.9968C34.6632 62.3053 41.6005 57.7415 45.4231 55.1138C49.2456 52.4861 50.1659 50.4808 51.5109 45.2946C52.1938 42.6608 58.0234 21.0925 58.0234 21.0925L56.0413 15.5606Z" fill="url(#paint0_linear_1_51)"/>
  <path d="M36.9284 11.6882C37.7779 11.6882 44.0781 10.5127 44.0781 10.5127C44.0781 10.5127 51.5443 19.3292 51.5443 21.2135C51.5443 22.7715 50.9022 23.3813 50.1461 24.0994C49.9877 24.2498 49.8243 24.405 49.6607 24.5747L44.0625 30.3817C44.007 30.4392 43.9452 30.4999 43.8798 30.5641C43.3211 31.113 42.4982 31.9212 43.0788 33.2634C43.1176 33.3531 43.1575 33.4443 43.1981 33.5369C43.8347 34.9911 44.6205 36.7863 43.6202 38.6056C42.5561 40.5406 40.7333 41.8322 39.5653 41.6187C38.3973 41.405 35.6542 40.0047 34.6455 39.3651C33.6368 38.7255 30.4397 36.1498 30.4397 35.1643C30.4397 34.3424 32.7389 32.975 33.8561 32.3107C34.0783 32.1785 34.2537 32.0742 34.355 32.0075C34.4703 31.9316 34.6632 31.8146 34.9006 31.6705C35.9202 31.0517 37.7613 29.9343 37.8076 29.4389C37.8645 28.828 37.8429 28.6489 37.021 27.1398C36.8463 26.8189 36.6418 26.4752 36.4304 26.12C35.6478 24.8046 34.7715 23.3318 34.9655 22.2767C35.1844 21.0858 37.0949 20.4029 38.7131 19.8245C38.9153 19.7522 39.113 19.6815 39.3023 19.6117C39.7745 19.4375 40.368 19.2204 40.9879 18.9935C42.6035 18.4024 44.3986 17.7456 44.6946 17.6122C45.1045 17.4276 44.9986 17.2518 43.7574 17.1369C43.5932 17.1217 43.389 17.1005 43.1547 17.0762C41.6183 16.9167 38.7845 16.6225 37.4068 16.9976C37.1359 17.0714 36.8321 17.1518 36.5136 17.236C34.9658 17.6455 33.0689 18.1472 32.8867 18.4365C32.8548 18.4871 32.8235 18.5306 32.7939 18.5717C32.6196 18.8138 32.5059 18.9716 32.6988 20.0002C32.7562 20.3065 32.8743 20.909 33.0204 21.654C33.4479 23.8353 34.1148 27.2379 34.1988 28.0023C34.2106 28.1093 34.2235 28.2125 34.236 28.3118C34.343 29.1646 34.4142 29.7321 33.4003 29.9585C33.3159 29.9773 33.2272 29.9972 33.1351 30.0179C31.9911 30.2743 30.314 30.6503 29.708 30.6503C29.1018 30.6503 27.4233 30.274 26.2794 30.0175C26.1878 29.997 26.0996 29.9772 26.0157 29.9585C25.0017 29.7321 25.0729 29.1646 25.1799 28.3118C25.1923 28.2124 25.2053 28.1092 25.217 28.0023C25.3013 27.2368 25.9699 23.8259 26.3974 21.645C26.5426 20.9042 26.66 20.3053 26.7172 20.0002C26.91 18.9717 26.7963 18.8138 26.6221 18.5717C26.5925 18.5306 26.5612 18.4871 26.5293 18.4365C26.3471 18.1472 24.4504 17.6455 22.9026 17.2361C22.584 17.1518 22.2801 17.0714 22.0091 16.9976C20.6314 16.6225 17.798 16.9166 16.2614 17.0761C16.027 17.1005 15.8228 17.1217 15.6585 17.1369C14.4174 17.2518 14.3115 17.4276 14.7212 17.6122C15.0173 17.7455 16.8115 18.402 18.4268 18.9931C19.0472 19.2201 19.6412 19.4374 20.1138 19.6117C20.3031 19.6816 20.5009 19.7523 20.7032 19.8246C22.3213 20.403 24.2316 21.0858 24.4506 22.2767C24.6445 23.3316 23.7684 24.8042 22.9859 26.1194C22.7744 26.4748 22.5698 26.8187 22.395 27.1398C21.5731 28.6489 21.5513 28.828 21.6084 29.4389C21.6546 29.9342 23.495 31.0512 24.5148 31.6701C24.7524 31.8144 24.9455 31.9316 25.0609 32.0075C25.1621 32.0742 25.3374 32.1784 25.5594 32.3104C26.6764 32.9746 28.9762 34.3423 28.9762 35.1643C28.9762 36.1498 25.7793 38.7255 24.7705 39.3651C23.7618 40.0047 21.0187 41.405 19.8507 41.6187C18.6827 41.8322 16.8599 40.5406 15.7958 38.6056C14.7956 36.7864 15.5812 34.9914 16.2177 33.5372C16.2582 33.4445 16.2982 33.3532 16.3371 33.2634C16.9177 31.921 16.0947 31.1128 15.5359 30.5639C15.4705 30.4998 15.4088 30.4392 15.3534 30.3817L9.75515 24.5747C9.59163 24.4051 9.42826 24.2499 9.26991 24.0995C8.51376 23.3813 7.87175 22.7715 7.87175 21.2135C7.87175 19.3292 15.338 10.5127 15.338 10.5127C15.338 10.5127 21.6381 11.6882 22.4876 11.6882C23.1654 11.6882 24.4743 11.2479 25.8387 10.7889C26.1842 10.6727 26.5332 10.5553 26.8765 10.4436C28.5754 9.89036 29.708 9.88635 29.708 9.88635C29.708 9.88635 30.8406 9.89036 32.5396 10.4436C32.8828 10.5553 33.2318 10.6727 33.5773 10.7889C34.9417 11.2479 36.2506 11.6882 36.9284 11.6882Z" fill="white"/>
  <path d="M35.847 42.8731C37.1788 43.5435 38.1237 44.0191 38.4809 44.2375C38.943 44.5202 38.6612 45.0531 38.2403 45.3438C37.8192 45.6345 32.1617 49.9139 31.6126 50.3869C31.5424 50.4475 31.4679 50.513 31.3903 50.5814C30.8612 51.0472 30.1864 51.6413 29.708 51.6413C29.2294 51.6413 28.5541 51.0467 28.025 50.5808C27.9477 50.5127 27.8734 50.4473 27.8033 50.3869C27.2542 49.9139 21.5968 45.6345 21.1757 45.3438C20.7547 45.0531 20.4729 44.5202 20.935 44.2375C21.2925 44.019 22.2383 43.5429 23.5715 42.8719C23.9622 42.6752 24.3862 42.4618 24.8384 42.2332C26.8334 41.2247 29.3199 40.3672 29.708 40.3672C30.096 40.3672 32.5824 41.2247 34.5777 42.2332C35.0308 42.4622 35.4556 42.6761 35.847 42.8731Z" fill="white"/>
  <g transform="translate(72, 11)" stroke="#000000" stroke-width="1.2" fill="#000000">
  	<path d="M 20.298 13.456 L 20.298 9.856 L 25.473 9.856 L 25.473 34.651 L 20.298 34.651 L 20.298 30.961 Q 18.993 32.716 16.743 33.886 Q 14.493 35.056 11.613 35.056 Q 8.418 35.056 5.763 33.413 Q 3.108 31.771 1.555 28.823 Q 0.003 25.876 0.003 22.141 Q 0.003 18.406 1.555 15.526 Q 3.108 12.646 5.785 11.048 Q 8.463 9.451 11.703 9.451 Q 14.628 9.451 16.81 10.598 Q 18.993 11.746 20.298 13.456 Z M 20.298 22.231 Q 20.298 19.666 19.24 17.776 Q 18.183 15.886 16.473 14.896 Q 14.763 13.906 12.783 13.906 Q 10.803 13.906 9.093 14.873 Q 7.383 15.841 6.325 17.708 Q 5.268 19.576 5.268 22.141 Q 5.268 24.706 6.325 26.641 Q 7.383 28.576 9.115 29.588 Q 10.848 30.601 12.783 30.601 Q 14.763 30.601 16.473 29.611 Q 18.183 28.621 19.24 26.708 Q 20.298 24.796 20.298 22.231 Z" id="0"/>
  	<path d="M 50.808 13.321 L 50.808 1.351 L 55.983 1.351 L 55.983 34.651 L 50.808 34.651 L 50.808 30.916 Q 49.548 32.716 47.32 33.886 Q 45.093 35.056 42.213 35.056 Q 38.973 35.056 36.295 33.413 Q 33.618 31.771 32.065 28.823 Q 30.513 25.876 30.513 22.141 Q 30.513 18.406 32.065 15.526 Q 33.618 12.646 36.295 11.048 Q 38.973 9.451 42.258 9.451 Q 44.688 9.451 47.05 10.508 Q 49.413 11.566 50.808 13.321 Z M 50.808 22.231 Q 50.808 19.666 49.75 17.776 Q 48.693 15.886 46.983 14.896 Q 45.273 13.906 43.293 13.906 Q 41.313 13.906 39.603 14.873 Q 37.893 15.841 36.835 17.708 Q 35.778 19.576 35.778 22.141 Q 35.778 24.706 36.835 26.641 Q 37.893 28.576 39.625 29.588 Q 41.358 30.601 43.293 30.601 Q 45.273 30.601 46.983 29.611 Q 48.693 28.621 49.75 26.708 Q 50.808 24.796 50.808 22.231 Z" id="1"/>
  	<path d="M 61.383 27.046 L 66.693 27.046 Q 66.828 28.621 68.2 29.678 Q 69.573 30.736 71.643 30.736 Q 73.803 30.736 74.995 29.903 Q 76.188 29.071 76.188 27.766 Q 76.188 26.371 74.86 25.696 Q 73.533 25.021 70.653 24.211 Q 67.863 23.446 66.108 22.726 Q 64.353 22.006 63.07 20.521 Q 61.788 19.036 61.788 16.606 Q 61.788 14.626 62.958 12.983 Q 64.128 11.341 66.31 10.396 Q 68.493 9.451 71.328 9.451 Q 75.558 9.451 78.145 11.588 Q 80.733 13.726 80.913 17.416 L 75.783 17.416 Q 75.648 15.751 74.433 14.761 Q 73.218 13.771 71.148 13.771 Q 69.123 13.771 68.043 14.536 Q 66.963 15.301 66.963 16.561 Q 66.963 17.551 67.683 18.226 Q 68.403 18.901 69.438 19.283 Q 70.473 19.666 72.498 20.251 Q 75.198 20.971 76.93 21.713 Q 78.663 22.456 79.923 23.896 Q 81.183 25.336 81.228 27.721 Q 81.228 29.836 80.058 31.501 Q 78.888 33.166 76.75 34.111 Q 74.613 35.056 71.733 35.056 Q 68.808 35.056 66.49 33.998 Q 64.173 32.941 62.823 31.118 Q 61.473 29.296 61.383 27.046 Z" id="2"/>
  	<path d="M 111.018 9.451 L 111.018 14.761 L 109.713 14.761 Q 106.698 14.761 105.145 16.291 Q 103.593 17.821 103.593 21.601 L 103.593 34.651 L 98.463 34.651 L 98.463 9.856 L 103.593 9.856 L 103.593 13.456 Q 104.718 11.566 106.585 10.508 Q 108.453 9.451 111.018 9.451 Z" id="4"/>
  	<path d="M 138.288 24.166 L 119.343 24.166 Q 119.568 27.136 121.548 28.936 Q 123.528 30.736 126.408 30.736 Q 130.548 30.736 132.258 27.271 L 137.793 27.271 Q 136.668 30.691 133.72 32.873 Q 130.773 35.056 126.408 35.056 Q 122.853 35.056 120.04 33.458 Q 117.228 31.861 115.63 28.958 Q 114.033 26.056 114.033 22.231 Q 114.033 18.406 115.585 15.503 Q 117.138 12.601 119.95 11.026 Q 122.763 9.451 126.408 9.451 Q 129.918 9.451 132.663 10.981 Q 135.408 12.511 136.938 15.278 Q 138.468 18.046 138.468 21.646 Q 138.468 23.041 138.288 24.166 Z M 119.388 20.026 L 133.113 20.026 Q 133.068 17.191 131.088 15.481 Q 129.108 13.771 126.183 13.771 Q 123.528 13.771 121.638 15.458 Q 119.748 17.146 119.388 20.026 Z" id="5"/>
  	<path d="M 148.638 31.051 L 148.638 46.441 L 143.508 46.441 L 143.508 9.856 L 148.638 9.856 L 148.638 13.501 Q 149.943 11.791 152.193 10.621 Q 154.443 9.451 157.278 9.451 Q 160.518 9.451 163.195 11.048 Q 165.873 12.646 167.403 15.526 Q 168.933 18.406 168.933 22.141 Q 168.933 25.876 167.403 28.823 Q 165.873 31.771 163.195 33.413 Q 160.518 35.056 157.278 35.056 Q 154.443 35.056 152.238 33.908 Q 150.033 32.761 148.638 31.051 Z M 163.713 22.141 Q 163.713 19.576 162.655 17.708 Q 161.598 15.841 159.865 14.873 Q 158.133 13.906 156.153 13.906 Q 154.218 13.906 152.485 14.896 Q 150.753 15.886 149.695 17.776 Q 148.638 19.666 148.638 22.231 Q 148.638 24.796 149.695 26.708 Q 150.753 28.621 152.485 29.611 Q 154.218 30.601 156.153 30.601 Q 158.133 30.601 159.865 29.588 Q 161.598 28.576 162.655 26.641 Q 163.713 24.706 163.713 22.141 Z" id="6"/>
  	<path d="M 184.773 35.056 Q 181.263 35.056 178.428 33.458 Q 175.593 31.861 173.973 28.958 Q 172.353 26.056 172.353 22.231 Q 172.353 18.451 174.018 15.526 Q 175.683 12.601 178.563 11.026 Q 181.443 9.451 184.998 9.451 Q 188.553 9.451 191.433 11.026 Q 194.313 12.601 195.978 15.526 Q 197.643 18.451 197.643 22.231 Q 197.643 26.011 195.933 28.936 Q 194.223 31.861 191.275 33.458 Q 188.328 35.056 184.773 35.056 Z M 184.773 30.601 Q 186.753 30.601 188.485 29.656 Q 190.218 28.711 191.298 26.821 Q 192.378 24.931 192.378 22.231 Q 192.378 19.531 191.343 17.663 Q 190.308 15.796 188.598 14.851 Q 186.888 13.906 184.908 13.906 Q 182.928 13.906 181.24 14.851 Q 179.553 15.796 178.563 17.663 Q 177.573 19.531 177.573 22.231 Q 177.573 26.236 179.62 28.418 Q 181.668 30.601 184.773 30.601 Z" id="7"/>
  	<path d="M 215.283 9.451 L 215.283 14.761 L 213.978 14.761 Q 210.963 14.761 209.41 16.291 Q 207.858 17.821 207.858 21.601 L 207.858 34.651 L 202.728 34.651 L 202.728 9.856 L 207.858 9.856 L 207.858 13.456 Q 208.983 11.566 210.85 10.508 Q 212.718 9.451 215.283 9.451 Z" id="8"/>
  	<path d="M 232.023 14.041 L 225.993 14.041 L 225.993 27.766 Q 225.993 29.161 226.645 29.768 Q 227.298 30.376 228.873 30.376 L 232.023 30.376 L 232.023 34.651 L 227.973 34.651 Q 224.508 34.651 222.663 33.031 Q 220.818 31.411 220.818 27.766 L 220.818 14.041 L 217.893 14.041 L 217.893 9.856 L 220.818 9.856 L 220.818 3.691 L 225.993 3.691 L 225.993 9.856 L 232.023 9.856 L 232.023 14.041 Z" id="9"/>
  	<path d="M 236.748 9.856 L 241.878 9.856 L 241.878 34.651 L 236.748 34.651 L 236.748 9.856 Z M 239.358 6.571 Q 237.963 6.571 237.018 5.626 Q 236.073 4.681 236.073 3.286 Q 236.073 1.891 237.018 0.946 Q 237.963 0.001 239.358 0.001 Q 240.708 0.001 241.653 0.946 Q 242.598 1.891 242.598 3.286 Q 242.598 4.681 241.653 5.626 Q 240.708 6.571 239.358 6.571 Z" id="10"/>
  	<path d="M 271.308 20.026 L 271.308 34.651 L 266.223 34.651 L 266.223 20.791 Q 266.223 17.461 264.558 15.683 Q 262.893 13.906 260.013 13.906 Q 257.133 13.906 255.445 15.683 Q 253.758 17.461 253.758 20.791 L 253.758 34.651 L 248.628 34.651 L 248.628 9.856 L 253.758 9.856 L 253.758 12.691 Q 255.018 11.161 256.975 10.306 Q 258.933 9.451 261.138 9.451 Q 264.063 9.451 266.38 10.666 Q 268.698 11.881 270.003 14.266 Q 271.308 16.651 271.308 20.026 Z" id="11"/>
  	<path d="M 296.418 13.456 L 296.418 9.856 L 301.593 9.856 L 301.593 35.056 Q 301.593 38.476 300.153 41.153 Q 298.713 43.831 295.99 45.361 Q 293.268 46.891 289.488 46.891 Q 284.448 46.891 281.118 44.528 Q 277.788 42.166 277.338 38.116 L 282.423 38.116 Q 283.008 40.051 284.92 41.243 Q 286.833 42.436 289.488 42.436 Q 292.593 42.436 294.505 40.546 Q 296.418 38.656 296.418 35.056 L 296.418 30.916 Q 295.113 32.671 292.885 33.863 Q 290.658 35.056 287.823 35.056 Q 284.583 35.056 281.905 33.413 Q 279.228 31.771 277.675 28.823 Q 276.123 25.876 276.123 22.141 Q 276.123 18.406 277.675 15.526 Q 279.228 12.646 281.905 11.048 Q 284.583 9.451 287.823 9.451 Q 290.703 9.451 292.93 10.598 Q 295.158 11.746 296.418 13.456 Z M 296.418 22.231 Q 296.418 19.666 295.36 17.776 Q 294.303 15.886 292.593 14.896 Q 290.883 13.906 288.903 13.906 Q 286.923 13.906 285.213 14.873 Q 283.503 15.841 282.445 17.708 Q 281.388 19.576 281.388 22.141 Q 281.388 24.706 282.445 26.641 Q 283.503 28.576 285.235 29.588 Q 286.968 30.601 288.903 30.601 Q 290.883 30.601 292.593 29.611 Q 294.303 28.621 295.36 26.708 Q 296.418 24.796 296.418 22.231 Z" id="12"/>
</g>
<defs>
<linearGradient id="paint0_linear_1_51" x1="1.39262" y1="65.3238" x2="58.0234" y2="65.3238" gradientUnits="userSpaceOnUse">
<stop stop-color="#FF5500"/>
<stop offset="0.333333" stop-color="#FF5500"/>
<stop offset="0.666667" stop-color="#FF2000"/>
<stop offset="1" stop-color="#FF2000"/>
</linearGradient>
</defs>
</svg>