<svg xmlns="http://www.w3.org/2000/svg" width="378" height="65" fill="none" viewBox="0 0 378 65"><path fill="url(#a)" fill-rule="evenodd" d="m56.041 15.56 1.558-3.733s-1.982-2.075-4.39-4.426c-2.406-2.351-7.503-.968-7.503-.968L39.902 0H19.515L13.71 6.433S8.613 5.05 6.206 7.4s-4.389 4.426-4.389 4.426l1.558 3.734-1.982 5.532s5.83 21.568 6.512 24.202c1.345 5.186 2.265 7.191 6.088 9.819s10.76 7.191 11.892 7.883c1.133.691 2.549 1.87 3.823 1.87s2.69-1.179 3.823-1.87c1.132-.692 8.07-5.255 11.892-7.883 3.823-2.628 4.743-4.633 6.088-9.82.683-2.633 6.512-24.201 6.512-24.201z" clip-rule="evenodd"/><path fill="#fff" d="M36.928 11.688c.85 0 7.15-1.175 7.15-1.175s7.466 8.816 7.466 10.7c0 1.558-.642 2.168-1.398 2.886q-.239.223-.485.476l-5.599 5.807-.182.182c-.559.549-1.382 1.357-.801 2.7q.058.134.12.273c.636 1.454 1.422 3.25.421 5.069-1.064 1.935-2.887 3.226-4.055 3.013s-3.91-1.614-4.92-2.254c-1.008-.64-4.205-3.215-4.205-4.2 0-.823 2.299-2.19 3.416-2.854.222-.133.398-.237.499-.303.115-.076.308-.193.546-.338 1.02-.618 2.86-1.736 2.907-2.231.056-.611.035-.79-.787-2.3-.175-.32-.38-.664-.59-1.019-.783-1.315-1.66-2.788-1.465-3.843.218-1.191 2.129-1.874 3.747-2.453l.59-.212c.472-.174 1.065-.392 1.685-.618 1.615-.592 3.41-1.248 3.707-1.382.41-.184.304-.36-.938-.475-.164-.015-.368-.037-.602-.06-1.537-.16-4.37-.455-5.748-.08-.271.074-.575.155-.893.239-1.548.41-3.445.911-3.627 1.2q-.048.076-.093.136c-.174.242-.288.4-.095 1.428.057.306.175.909.321 1.654.428 2.181 1.095 5.584 1.179 6.348l.037.31c.107.853.178 1.42-.836 1.646l-.265.06c-1.144.256-2.821.632-3.427.632s-2.285-.376-3.429-.633l-.263-.058c-1.014-.227-.943-.794-.836-1.647l.037-.31c.084-.765.753-4.176 1.18-6.357.146-.74.263-1.34.32-1.645.193-1.028.08-1.186-.095-1.428a3 3 0 0 1-.093-.136c-.182-.289-2.079-.79-3.626-1.2l-.894-.238c-1.378-.376-4.211-.081-5.748.078-.234.024-.438.046-.602.06-1.242.116-1.348.292-.938.476.296.134 2.09.79 3.706 1.381.62.227 1.214.444 1.687.619q.285.104.59.213c1.617.578 3.528 1.26 3.747 2.452.194 1.055-.683 2.527-1.465 3.842-.212.356-.416.7-.591 1.02-.822 1.51-.844 1.689-.787 2.3.047.495 1.887 1.612 2.907 2.231.237.144.43.262.546.337.101.067.276.171.498.303 1.117.665 3.417 2.032 3.417 2.854 0 .986-3.197 3.561-4.206 4.201-1.008.64-3.751 2.04-4.92 2.254-1.167.213-2.99-1.078-4.054-3.013-1-1.82-.215-3.615.422-5.069l.12-.274c.58-1.342-.243-2.15-.802-2.7l-.183-.181-5.598-5.807a15 15 0 0 0-.485-.476c-.756-.718-1.398-1.328-1.398-2.886 0-1.884 7.466-10.7 7.466-10.7s6.3 1.175 7.15 1.175c.677 0 1.986-.44 3.35-.9.346-.115.695-.233 1.038-.344 1.7-.554 2.832-.558 2.832-.558s1.133.004 2.832.558c.343.111.692.229 1.037.345 1.365.459 2.674.9 3.351.9"/><path fill="#fff" d="M35.847 42.873c1.332.67 2.277 1.146 2.634 1.364.462.283.18.816-.24 1.107-.422.29-6.08 4.57-6.628 5.043l-.223.194c-.529.466-1.204 1.06-1.682 1.06-.479 0-1.154-.594-1.683-1.06l-.222-.194c-.549-.473-6.206-4.752-6.627-5.043-.421-.29-.703-.824-.241-1.107.358-.218 1.303-.694 2.637-1.365l1.266-.639c1.995-1.008 4.482-1.866 4.87-1.866s2.874.858 4.87 1.866q.681.345 1.269.64"/><g fill="#000" stroke="#000" stroke-width="1.2"><path d="M92.298 24.456v-3.6h5.175v24.795h-5.175v-3.69q-1.305 1.755-3.555 2.925t-5.13 1.17q-3.195 0-5.85-1.643-2.655-1.642-4.208-4.59-1.552-2.947-1.552-6.682t1.552-6.615 4.23-4.478 5.918-1.597q2.925 0 5.107 1.147t3.488 2.858Zm0 8.775q0-2.565-1.058-4.455-1.057-1.89-2.767-2.88t-3.69-.99-3.69.967-2.768 2.835q-1.057 1.868-1.057 4.433t1.057 4.5q1.058 1.935 2.79 2.947 1.733 1.013 3.668 1.013 1.98 0 3.69-.99t2.767-2.903q1.058-1.912 1.058-4.477ZM122.808 24.321v-11.97h5.175v33.3h-5.175v-3.735q-1.26 1.8-3.488 2.97t-5.107 1.17q-3.24 0-5.918-1.643-2.677-1.642-4.23-4.59-1.552-2.947-1.552-6.682t1.552-6.615q1.553-2.88 4.23-4.478t5.963-1.597q2.43 0 4.792 1.057 2.363 1.058 3.758 2.813Zm0 8.91q0-2.565-1.058-4.455-1.057-1.89-2.767-2.88t-3.69-.99-3.69.967-2.768 2.835q-1.057 1.868-1.057 4.433t1.057 4.5 2.79 2.947 3.668 1.013q1.98 0 3.69-.99t2.767-2.903q1.058-1.912 1.058-4.477ZM133.383 38.046h5.31q.135 1.575 1.507 2.632 1.373 1.058 3.443 1.058 2.16 0 3.352-.833 1.193-.832 1.193-2.137 0-1.395-1.328-2.07-1.327-.675-4.207-1.485-2.79-.765-4.545-1.485t-3.038-2.205-1.282-3.915q0-1.98 1.17-3.623 1.17-1.642 3.352-2.587t5.018-.945q4.23 0 6.817 2.137 2.588 2.138 2.768 5.828h-5.13q-.135-1.665-1.35-2.655t-3.285-.99q-2.025 0-3.105.765t-1.08 2.025q0 .99.72 1.665t1.755 1.057 3.06.968q2.7.72 4.432 1.462 1.733.743 2.993 2.183t1.305 3.825q0 2.115-1.17 3.78t-3.308 2.61-5.017.945q-2.925 0-5.243-1.058-2.317-1.057-3.667-2.88t-1.44-4.072ZM183.018 20.451v5.31h-1.305q-3.015 0-4.568 1.53t-1.552 5.31v13.05h-5.13V20.856h5.13v3.6q1.125-1.89 2.992-2.948 1.868-1.057 4.433-1.057ZM210.288 35.166h-18.945q.225 2.97 2.205 4.77t4.86 1.8q4.14 0 5.85-3.465h5.535q-1.125 3.42-4.073 5.602-2.947 2.183-7.312 2.183-3.555 0-6.368-1.598-2.812-1.597-4.41-4.5-1.597-2.902-1.597-6.727t1.552-6.728q1.553-2.902 4.365-4.477t6.458-1.575q3.51 0 6.255 1.53t4.275 4.297q1.53 2.768 1.53 6.368 0 1.395-.18 2.52Zm-18.9-4.14h13.725q-.045-2.835-2.025-4.545t-4.905-1.71q-2.655 0-4.545 1.687t-2.25 4.568ZM220.638 42.051v15.39h-5.13V20.856h5.13v3.645q1.305-1.71 3.555-2.88t5.085-1.17q3.24 0 5.917 1.597 2.678 1.598 4.208 4.478t1.53 6.615-1.53 6.682-4.208 4.59q-2.677 1.643-5.917 1.643-2.835 0-5.04-1.148t-3.6-2.857Zm15.075-8.91q0-2.565-1.058-4.433-1.057-1.867-2.79-2.835-1.732-.967-3.712-.967-1.935 0-3.668.99-1.732.99-2.79 2.88-1.057 1.89-1.057 4.455t1.057 4.477q1.058 1.913 2.79 2.903 1.733.99 3.668.99 1.98 0 3.712-1.013t2.79-2.947 1.058-4.5ZM256.773 46.056q-3.51 0-6.345-1.598-2.835-1.597-4.455-4.5t-1.62-6.727q0-3.78 1.665-6.705t4.545-4.5 6.435-1.575 6.435 1.575 4.545 4.5 1.665 6.705-1.71 6.705-4.658 4.522-6.502 1.598Zm0-4.455q1.98 0 3.712-.945t2.813-2.835q1.08-1.89 1.08-4.59t-1.035-4.568q-1.035-1.867-2.745-2.812t-3.69-.945-3.668.945-2.677 2.812-.99 4.568q0 4.005 2.047 6.187t5.153 2.183ZM287.283 20.451v5.31h-1.305q-3.015 0-4.568 1.53t-1.552 5.31v13.05h-5.13V20.856h5.13v3.6q1.125-1.89 2.992-2.948 1.868-1.057 4.433-1.057ZM304.023 25.041h-6.03v13.725q0 1.395.652 2.002.653.608 2.228.608h3.15v4.275h-4.05q-3.465 0-5.31-1.62t-1.845-5.265V25.041h-2.925v-4.185h2.925v-6.165h5.175v6.165h6.03zM308.748 20.856h5.13v24.795h-5.13zm2.61-3.285q-1.395 0-2.34-.945t-.945-2.34.945-2.34 2.34-.945q1.35 0 2.295.945t.945 2.34-.945 2.34-2.295.945ZM343.308 31.026v14.625h-5.085v-13.86q0-3.33-1.665-5.108t-4.545-1.777-4.568 1.777q-1.687 1.778-1.687 5.108v13.86h-5.13V20.856h5.13v2.835q1.26-1.53 3.217-2.385t4.163-.855q2.925 0 5.242 1.215t3.623 3.6 1.305 5.76ZM368.418 24.456v-3.6h5.175v25.2q0 3.42-1.44 6.097t-4.163 4.208q-2.722 1.53-6.502 1.53-5.04 0-8.37-2.363t-3.78-6.412h5.085q.585 1.935 2.497 3.127 1.913 1.193 4.568 1.193 3.105 0 5.017-1.89t1.913-5.49v-4.14q-1.305 1.755-3.533 2.947t-5.062 1.193q-3.24 0-5.918-1.643-2.677-1.642-4.23-4.59-1.552-2.947-1.552-6.682t1.552-6.615 4.23-4.478 5.918-1.597q2.88 0 5.107 1.147t3.488 2.858Zm0 8.775q0-2.565-1.058-4.455-1.057-1.89-2.767-2.88t-3.69-.99-3.69.967-2.768 2.835q-1.057 1.868-1.057 4.433t1.057 4.5 2.79 2.947 3.668 1.013q1.98 0 3.69-.99t2.767-2.903q1.058-1.912 1.058-4.477Z"/></g><defs><linearGradient id="a" x1="1.393" x2="58.023" y1="65.324" y2="65.324" gradientUnits="userSpaceOnUse"><stop stop-color="#f50"/><stop offset=".333" stop-color="#f50"/><stop offset=".667" stop-color="#ff2000"/><stop offset="1" stop-color="#ff2000"/></linearGradient></defs></svg>