<svg width="320" height="200" viewBox="0 0 320 200" fill="none" xmlns="http://www.w3.org/2000/svg">
<g clip-path="url(#clip0_338_9706)">
<path d="M0 8C0 3.58173 3.58172 0 8 0H312C316.418 0 320 3.58172 320 8V192C320 196.418 316.418 200 312 200H7.99999C3.58171 200 0 196.418 0 192V8Z" fill="#E1FBFF"/>
<g clip-path="url(#clip1_338_9706)">
<rect width="332" height="266" transform="translate(-6 -33)" fill="#F2F5FF"/>
<g filter="url(#filter0_f_338_9706)">
<path d="M105.128 135.198C70.1755 165.539 33.5402 62.9687 23.9722 29.7187C23.9722 -19.7407 -65.9445 -39.7253 -110.903 -43.5352C-51.8038 -46.7823 97.6116 -54.1336 222.48 -57.5625C378.567 -61.8487 403.582 55.0459 278.621 29.7187C153.66 4.39157 148.818 97.2725 105.128 135.198Z" fill="#E1FBFF"/>
</g>
<g filter="url(#filter1_f_338_9706)">
<ellipse cx="206.572" cy="135.068" rx="83" ry="93.5156" fill="#FDF5E0"/>
</g>
</g>
<path d="M101.522 80.4509L111.92 76.985L123.859 79.2956L130.984 88.7312L133.487 99.7073L129.829 109.335V128.014L133.487 141.301L129.829 151.699L119.238 158.439L111.92 159.787L99.9813 153.818L94.397 145.73V136.294L97.0928 128.977V110.491L94.397 102.211V90.0792L101.522 80.4509Z" fill="#E1FBFF"/>
<path d="M197.896 73.0185L177.829 62.9851L226.386 49.4834L204.09 94.0764L197.896 73.0185Z" fill="#E1FBFF"/>
<path fill-rule="evenodd" clip-rule="evenodd" d="M163.794 41.3579L157.922 44.9386L155.773 49.6649V149.35L157.922 155.222L163.794 158.946L210.915 158.086L217.217 153.217V67.4248L204.756 94.4944L197.882 73.5835L177.687 62.4119L218.506 51.2404L215.785 44.2223L208.051 41.3579H163.794ZM173.247 105.38L167.804 109.39L165.656 117.411L167.804 124.715L173.247 127.436H202.465L207.621 121.851V110.822L200.889 105.38H173.247Z" fill="#9AEAF8"/>
<path d="M104.506 145.196L100.184 153.408L103.21 156.65L110.612 158.811L118.716 158.379L125.902 153.408L123.741 147.465L117.257 142.441L118.014 140.55L119.094 138.767V133.148L115.798 129.365H112.233L107.802 131.743L106.992 138.388L110.287 142.441L104.506 145.196Z" fill="#9AEAF8"/>
<path fill-rule="evenodd" clip-rule="evenodd" d="M227.869 48.9298C227.918 49.1227 227.926 49.3253 227.902 49.5264C227.897 49.5692 227.884 49.6083 227.871 49.6478C227.863 49.6733 227.854 49.6989 227.848 49.7258C227.84 49.7559 227.834 49.7862 227.827 49.8166C227.812 49.887 227.797 49.9576 227.765 50.025L219.748 66.9628V149.039C219.748 155.347 214.614 160.481 208.306 160.481H165.806C159.497 160.481 154.364 155.347 154.364 149.039V86.9231H152.729C148.223 86.9231 144.556 90.5896 144.556 95.0962V131.875C144.556 137.72 140.084 142.549 134.337 143.227C133.446 147.909 131.1 152.054 127.481 155.18C123.713 158.59 118.737 160.481 113.498 160.481C108.41 160.481 103.578 158.683 99.8281 155.433C99.4538 155.284 99.1661 155.015 98.9896 154.665C94.7151 150.649 92.2484 145.07 92.2484 139.231C92.2484 135.599 93.0902 132.308 94.6758 129.397C93.0902 126.27 92.2484 122.988 92.2484 119.615C92.2484 115.58 93.36 111.696 95.4539 108.299C93.2553 104.843 92.085 100.868 92.085 96.7308C92.085 85.0139 101.618 75.4808 113.335 75.4808C125.052 75.4808 134.585 85.0139 134.585 96.7308C134.585 100.768 133.473 104.651 131.378 108.047C133.583 111.522 134.748 115.488 134.748 119.615C134.748 122.997 133.903 126.29 132.308 129.425C133.907 132.576 134.748 135.859 134.748 139.231C134.748 139.356 134.745 139.485 134.742 139.615C134.74 139.693 134.738 139.771 134.737 139.849C138.475 139.043 141.287 135.779 141.287 131.875V95.0962C141.287 88.7866 146.42 83.6539 152.729 83.6539H154.364V50.9616C154.364 44.652 159.498 39.5193 165.806 39.5193H208.306C214.073 39.5193 218.844 43.8134 219.626 49.3727L225.877 47.7479C225.902 47.7407 225.927 47.7415 225.951 47.7422C225.972 47.7428 225.992 47.7434 226.012 47.7398C226.146 47.7169 226.279 47.7071 226.414 47.7185C226.488 47.7234 226.558 47.7332 226.63 47.7496C226.749 47.7757 226.862 47.8166 226.975 47.8705L226.988 47.8769C227.056 47.9089 227.121 47.9403 227.184 47.9817C227.199 47.9914 227.214 47.9981 227.23 48.0047C227.248 48.0127 227.267 48.0207 227.284 48.034C227.328 48.0685 227.362 48.1096 227.396 48.1511C227.415 48.1744 227.434 48.1979 227.456 48.2203C227.469 48.2342 227.483 48.2478 227.497 48.2614C227.538 48.3021 227.578 48.3425 227.613 48.3903C227.711 48.5277 227.779 48.6764 227.83 48.835C227.834 48.8493 227.841 48.8617 227.849 48.8743C227.857 48.8874 227.865 48.9008 227.869 48.9167C227.869 48.9216 227.868 48.9249 227.869 48.9298ZM131.316 96.7308C131.316 86.8169 123.249 78.7501 113.335 78.7501C103.421 78.7501 95.3542 86.8169 95.3542 96.7308C95.3542 99.8252 96.1274 102.812 97.5838 105.484C101.68 100.935 107.356 98.3654 113.498 98.3654C119.548 98.3654 125.15 100.845 129.215 105.242C130.588 102.632 131.316 99.732 131.316 96.7308ZM113.172 144.135C107.887 144.135 103.338 147.953 102.215 153.168C105.348 155.775 109.315 157.212 113.498 157.212C117.569 157.212 121.433 155.852 124.512 153.39C123.612 148.148 118.916 144.135 113.498 144.135H113.335H113.172ZM113.498 140.865H113.662C116.32 140.865 118.402 138.713 118.402 135.962C118.402 133.258 116.202 131.058 113.498 131.058C110.795 131.058 108.595 133.258 108.595 135.962C108.595 138.713 110.677 140.865 113.335 140.865H113.498ZM119.058 142.013C122.87 143.628 125.899 146.833 127.219 150.794C129.444 148.189 130.856 145.021 131.33 141.467C131.479 140.704 131.479 139.988 131.479 139.231C131.479 136.128 130.668 133.094 129.07 130.216C125.85 124.697 119.875 121.25 113.498 121.25C107.12 121.25 101.147 124.697 97.9107 130.245C97.9072 130.251 97.9042 130.256 97.9011 130.261C97.8985 130.266 97.8958 130.27 97.8928 130.275C96.2957 132.89 95.5177 135.819 95.5177 139.231C95.5177 143.36 96.9888 147.335 99.5944 150.528C101.03 146.583 104.052 143.46 107.83 141.92C106.288 140.439 105.325 138.342 105.325 135.962C105.325 131.455 108.992 127.789 113.498 127.789C118.005 127.789 121.672 131.455 121.672 135.962C121.672 138.396 120.661 140.527 119.058 142.013ZM181.829 63.0153L197.9 70.9873L219.675 52.7352L218.524 53.0343H218.522L181.829 63.0153ZM208.306 157.212C212.813 157.212 216.479 153.545 216.479 149.039V73.8691L206.023 95.9626C205.751 96.5347 205.174 96.8959 204.547 96.8959C204.506 96.8959 204.462 96.8943 204.419 96.891C203.742 96.8371 203.169 96.3728 202.979 95.7223L196.586 73.9852L172.667 62.1195L216.445 50.2113C216.066 46.0561 212.561 42.7885 208.306 42.7885H165.806C161.299 42.7885 157.633 46.455 157.633 50.9616V149.039C157.633 153.545 161.299 157.212 165.806 157.212H208.306ZM199.88 73.5945L204.906 90.6877L221.627 55.3767L199.88 73.5945ZM175.614 103.269C169.198 103.269 164.171 108.296 164.171 114.712V117.981C164.171 124.289 169.306 129.423 175.614 129.423H198.498C204.806 129.423 209.941 124.289 209.941 117.981V114.712C209.941 108.404 204.806 103.269 198.498 103.269H175.614ZM206.671 114.712V117.981C206.671 122.487 203.005 126.154 198.498 126.154H175.614C171.107 126.154 167.441 122.487 167.441 117.981V114.712C167.441 110.128 171.03 106.538 175.614 106.538H198.498C203.003 106.538 206.671 110.205 206.671 114.712ZM201.767 134.327H172.344C170.546 134.327 168.911 135.144 167.767 136.288C166.623 137.433 165.806 139.067 165.806 140.865C165.806 144.461 168.748 147.404 172.344 147.404H201.767C203.565 147.404 205.2 146.586 206.344 145.442C207.488 144.298 208.306 142.663 208.306 140.865C208.306 137.269 205.363 134.327 201.767 134.327Z" fill="#00515B"/>
</g>
<defs>
<filter id="filter0_f_338_9706" x="-210.903" y="-157.678" width="669.036" height="398.419" filterUnits="userSpaceOnUse" color-interpolation-filters="sRGB">
<feFlood flood-opacity="0" result="BackgroundImageFix"/>
<feBlend mode="normal" in="SourceGraphic" in2="BackgroundImageFix" result="shape"/>
<feGaussianBlur stdDeviation="50" result="effect1_foregroundBlur_338_9706"/>
</filter>
<filter id="filter1_f_338_9706" x="23.5723" y="-58.4473" width="366" height="387.031" filterUnits="userSpaceOnUse" color-interpolation-filters="sRGB">
<feFlood flood-opacity="0" result="BackgroundImageFix"/>
<feBlend mode="normal" in="SourceGraphic" in2="BackgroundImageFix" result="shape"/>
<feGaussianBlur stdDeviation="50" result="effect1_foregroundBlur_338_9706"/>
</filter>
<clipPath id="clip0_338_9706">
<path d="M0 8C0 3.58173 3.58172 0 8 0H312C316.418 0 320 3.58172 320 8V192C320 196.418 316.418 200 312 200H7.99999C3.58171 200 0 196.418 0 192V8Z" fill="white"/>
</clipPath>
<clipPath id="clip1_338_9706">
<rect width="332" height="266" fill="white" transform="translate(-6 -33)"/>
</clipPath>
</defs>
</svg>
