<svg width="320" height="200" viewBox="0 0 320 200" fill="none" xmlns="http://www.w3.org/2000/svg">
<g clip-path="url(#clip0_338_9572)">
<path d="M0 8C0 3.58173 3.58172 0 8 0H312C316.418 0 320 3.58172 320 8V192C320 196.418 316.418 200 312 200H7.99999C3.58171 200 0 196.418 0 192V8Z" fill="#E1FBFF"/>
<g clip-path="url(#clip1_338_9572)">
<rect width="358" height="278" transform="translate(-29 -32.5)" fill="#F2F5FF"/>
<g filter="url(#filter0_f_338_9572)">
<ellipse cx="227.57" cy="133.595" rx="139.422" ry="152.25" fill="#FFF1F1"/>
</g>
<g filter="url(#filter1_f_338_9572)">
<ellipse cx="188.535" cy="9.58008" rx="90.9917" ry="102.35" fill="#FFF1F6"/>
</g>
<g filter="url(#filter2_f_338_9572)">
<ellipse cx="307.371" cy="181.642" rx="67.8708" ry="74.1153" fill="#FFF2EE"/>
</g>
<g filter="url(#filter3_f_338_9572)">
<path d="M65.348 157.132C65.348 220.78 -101.107 256.359 -51.7479 256.359C-25.6849 256.359 45.3377 271.075 89.0903 256.359C128.199 243.206 141.796 202.442 141.796 172.402C141.796 108.754 79.4045 50.7771 30.0452 50.7771C-19.3141 50.7771 65.348 93.4837 65.348 157.132Z" fill="#EEF6FF"/>
</g>
</g>
<path d="M92.7642 147.178L93.9316 140.562H225.607V147.178L220.677 152.108H96.656L92.7642 147.178Z" fill="#E1FBFF"/>
<path fill-rule="evenodd" clip-rule="evenodd" d="M106.844 68.0012L102.821 72.7429V140.275H146.358L147.938 143.293L151.818 145.161H167.48L171.072 142.431V140.275H215.04V83.0883H193.199L188.745 80.933V75.4729L193.199 66.4207H111.442L106.844 68.0012ZM143.65 115.185L159.3 116.432L174.513 114.873L170.772 125.036L166.283 124.35L159.799 120.859H156.058L151.194 124.35H148.513L143.65 115.185Z" fill="#9AEAF8"/>
<path fill-rule="evenodd" clip-rule="evenodd" d="M227.643 80.9956C226.163 83.5126 223.522 85.0137 220.579 85.0137H216.659V138.752H225.316C226.219 138.752 226.949 139.482 226.949 140.385V146.102C226.949 150.426 223.431 153.942 219.109 153.942H99.0555C94.732 153.942 91.2153 150.424 91.2153 146.102V140.385C91.2153 139.482 91.9471 138.752 92.8487 138.752H101.669V74.5601C101.669 68.8857 106.285 64.2698 111.959 64.2698H192.201L200.376 50.061C200.385 50.048 200.394 50.0349 200.402 50.0202C201.929 47.5391 204.588 46.0576 207.51 46.0576H207.512C210.436 46.0576 213.091 47.5391 214.619 50.0202L227.712 72.765C229.169 75.3866 229.138 78.4557 227.643 80.9956ZM111.959 67.5365C108.152 67.5365 104.936 70.7527 104.936 74.5601V138.75H147.239C148.14 138.75 148.872 139.48 148.872 140.384C148.872 143.084 151.533 143.487 153.119 143.487H165.042C166.63 143.487 169.291 143.084 169.291 140.384C169.291 139.48 170.021 138.75 170.924 138.75H213.392V85.012H194.443C191.5 85.012 188.859 83.511 187.379 80.9939C185.884 78.454 185.853 75.3865 187.299 72.7862L190.321 67.5365H111.959ZM223.682 146.102V142.019H172.365C171.643 144.944 168.928 146.755 165.042 146.755H153.119C149.235 146.755 146.52 144.944 145.798 142.019H94.4821V146.102C94.4821 148.624 96.5336 150.675 99.0555 150.675H219.109C221.631 150.675 223.682 148.624 223.682 146.102ZM190.195 79.3377C191.083 80.8469 192.671 81.7469 194.445 81.7469H220.579C222.353 81.7469 223.94 80.8469 224.829 79.3393C225.729 77.8072 225.744 75.9501 224.868 74.3739L211.813 51.6911C210.909 50.2244 209.294 49.3244 207.513 49.3244H207.512C205.74 49.3244 204.127 50.2162 203.196 51.714L190.144 74.3951C189.278 75.9501 189.293 77.8056 190.195 79.3377ZM184.481 105.921C184.481 104.124 180.235 102.654 173.864 101.674C173.211 97.4275 172.231 92.8541 170.108 89.0973C169.291 87.7906 168.148 86.3206 166.678 85.9939C165.534 85.6672 164.228 85.9939 163.248 86.6472C162.738 86.9868 162.307 87.4244 161.887 87.8513C161.094 88.6566 160.338 89.424 159.164 89.424C157.991 89.3173 157.236 88.5842 156.444 87.8153L156.444 87.8152C156.023 87.4064 155.591 86.9874 155.081 86.6472C154.101 85.9939 152.794 85.6672 151.651 85.9939C150.017 86.3206 148.874 87.7906 148.22 89.0973C146.097 92.8541 145.117 97.4275 144.464 101.674C138.093 102.654 133.847 104.124 133.847 105.921C133.847 108.861 145.117 111.148 159.164 111.148C173.211 111.148 184.481 108.861 184.481 105.921ZM153.937 125.032C154.753 124.378 155.57 123.888 156.387 123.398C158.02 122.582 160.144 122.582 161.777 123.398C162.594 123.888 163.41 124.542 164.227 125.195C166.024 126.665 168.147 127.645 170.434 126.992C173.211 126.175 174.354 123.725 175.007 121.275C175.661 118.498 176.151 115.722 176.477 112.945C154.263 115.885 141.85 112.945 141.686 112.781C142.013 115.721 142.34 118.335 143.156 121.112C143.973 123.562 144.953 126.012 147.73 126.828C150.18 127.482 152.14 126.502 153.937 125.032ZM171.251 117.355C171.251 117.355 172.067 122.092 167.984 122.255C163.737 122.418 163.084 119.642 163.084 119.642C165.534 118.008 171.251 117.355 171.251 117.355ZM146.913 117.355C146.913 117.355 152.63 118.008 155.08 119.642C155.08 119.642 154.427 122.418 150.343 122.255C146.097 122.092 146.913 117.355 146.913 117.355ZM207.512 69.0065C208.415 69.0065 209.145 68.2748 209.145 67.3732V59.3696C209.145 58.468 208.415 57.7362 207.512 57.7362C206.609 57.7362 205.878 58.468 205.878 59.3696V67.3732C205.878 68.2748 206.609 69.0065 207.512 69.0065ZM204.898 73.4164C204.898 71.9725 206.068 70.803 207.512 70.803C208.956 70.803 210.125 71.9725 210.125 73.4164C210.125 74.8603 208.956 76.0298 207.512 76.0298C206.068 76.0298 204.898 74.8603 204.898 73.4164Z" fill="#00515B"/>
</g>
<defs>
<filter id="filter0_f_338_9572" x="-11.8525" y="-118.654" width="478.844" height="504.499" filterUnits="userSpaceOnUse" color-interpolation-filters="sRGB">
<feFlood flood-opacity="0" result="BackgroundImageFix"/>
<feBlend mode="normal" in="SourceGraphic" in2="BackgroundImageFix" result="shape"/>
<feGaussianBlur stdDeviation="50" result="effect1_foregroundBlur_338_9572"/>
</filter>
<filter id="filter1_f_338_9572" x="-2.45703" y="-192.77" width="381.983" height="404.699" filterUnits="userSpaceOnUse" color-interpolation-filters="sRGB">
<feFlood flood-opacity="0" result="BackgroundImageFix"/>
<feBlend mode="normal" in="SourceGraphic" in2="BackgroundImageFix" result="shape"/>
<feGaussianBlur stdDeviation="50" result="effect1_foregroundBlur_338_9572"/>
</filter>
<filter id="filter2_f_338_9572" x="139.5" y="7.5271" width="335.742" height="348.23" filterUnits="userSpaceOnUse" color-interpolation-filters="sRGB">
<feFlood flood-opacity="0" result="BackgroundImageFix"/>
<feBlend mode="normal" in="SourceGraphic" in2="BackgroundImageFix" result="shape"/>
<feGaussianBlur stdDeviation="50" result="effect1_foregroundBlur_338_9572"/>
</filter>
<filter id="filter3_f_338_9572" x="-160.896" y="-49.2229" width="402.692" height="412.122" filterUnits="userSpaceOnUse" color-interpolation-filters="sRGB">
<feFlood flood-opacity="0" result="BackgroundImageFix"/>
<feBlend mode="normal" in="SourceGraphic" in2="BackgroundImageFix" result="shape"/>
<feGaussianBlur stdDeviation="50" result="effect1_foregroundBlur_338_9572"/>
</filter>
<clipPath id="clip0_338_9572">
<path d="M0 8C0 3.58173 3.58172 0 8 0H312C316.418 0 320 3.58172 320 8V192C320 196.418 316.418 200 312 200H7.99999C3.58171 200 0 196.418 0 192V8Z" fill="white"/>
</clipPath>
<clipPath id="clip1_338_9572">
<rect width="358" height="278" fill="white" transform="translate(-29 -32.5)"/>
</clipPath>
</defs>
</svg>
