<svg width="116" height="24" viewBox="0 0 116 24" fill="none" xmlns="http://www.w3.org/2000/svg">
<path fill-rule="evenodd" clip-rule="evenodd" d="M19.9846 5.74545L20.5469 4.36672C20.5469 4.36672 19.8312 3.60077 18.9622 2.73268C18.0931 1.8646 16.2527 2.37523 16.2527 2.37523L14.1567 0H10.476H6.79526L4.69928 2.37523C4.69928 2.37523 2.8589 1.8646 1.98984 2.73268C1.12077 3.60077 0.405073 4.36672 0.405073 4.36672L0.967409 5.74545L0.251709 7.788C0.251709 7.788 2.35664 15.7517 2.6033 16.7242C3.08895 18.6391 3.42124 19.3795 4.80152 20.3497C6.1818 21.3199 8.68675 23.005 9.09572 23.2603C9.50469 23.5157 10.0159 23.9506 10.476 23.9506C10.9361 23.9506 11.4473 23.5157 11.8563 23.2603C12.2653 23.005 14.7702 21.3199 16.1505 20.3497C17.5308 19.3795 17.8631 18.6391 18.3487 16.7242C18.5953 15.7517 20.7003 7.788 20.7003 7.788L19.9846 5.74545Z" fill="#546071"/>
<path d="M13.083 4.31566C13.3898 4.31566 15.6647 3.88161 15.6647 3.88161C15.6647 3.88161 18.3606 7.13693 18.3606 7.83268C18.3606 8.40792 18.1288 8.63308 17.8557 8.89824C17.7985 8.95379 17.7395 9.01109 17.6805 9.07373L15.659 11.2179C15.639 11.2391 15.6167 11.2615 15.5931 11.2852C15.3913 11.4879 15.0942 11.7863 15.3038 12.2819C15.3179 12.315 15.3323 12.3487 15.3469 12.3828C15.5768 12.9198 15.8605 13.5826 15.4993 14.2544C15.1151 14.9688 14.4569 15.4457 14.0352 15.3669C13.6134 15.288 12.6229 14.771 12.2587 14.5348C11.8945 14.2986 10.74 13.3476 10.74 12.9837C10.74 12.6803 11.5703 12.1754 11.9736 11.9301C12.0539 11.8813 12.1172 11.8428 12.1538 11.8182C12.1954 11.7901 12.2651 11.7469 12.3508 11.6937C12.719 11.4652 13.3838 11.0527 13.4005 10.8697C13.421 10.6442 13.4132 10.5781 13.1165 10.0209C13.0534 9.90237 12.9795 9.77546 12.9032 9.6443C12.6206 9.15863 12.3042 8.61481 12.3742 8.22526C12.4533 7.78551 13.1431 7.53338 13.7274 7.31981C13.8005 7.29312 13.8718 7.26703 13.9402 7.24126C14.1107 7.17693 14.325 7.09675 14.5488 7.013C15.1322 6.79472 15.7804 6.55221 15.8873 6.50297C16.0353 6.4348 15.9971 6.3699 15.5489 6.32747C15.4896 6.32185 15.4159 6.31403 15.3313 6.30505C14.7765 6.24616 13.7532 6.13754 13.2558 6.27605C13.1579 6.30329 13.0482 6.33296 12.9332 6.36406C12.3743 6.51524 11.6894 6.70051 11.6236 6.80731C11.6121 6.826 11.6008 6.84206 11.5901 6.85723C11.5272 6.94662 11.4861 7.00489 11.5558 7.38469C11.5765 7.49779 11.6192 7.72026 11.6719 7.99533C11.8263 8.80072 12.0671 10.0571 12.0974 10.3393C12.1017 10.3788 12.1063 10.4169 12.1108 10.4536C12.1495 10.7685 12.1752 10.978 11.8091 11.0616C11.7786 11.0686 11.7466 11.0759 11.7133 11.0835C11.3002 11.1782 10.6946 11.317 10.4758 11.317C10.2569 11.317 9.65087 11.1781 9.23782 11.0834C9.20474 11.0758 9.1729 11.0685 9.14259 11.0616C8.77646 10.978 8.80216 10.7685 8.84079 10.4536C8.84529 10.4169 8.84996 10.3788 8.85421 10.3393C8.88462 10.0567 9.12605 8.79724 9.28041 7.99198C9.33284 7.71846 9.37523 7.49733 9.39589 7.38469C9.46551 7.00492 9.42447 6.94663 9.36156 6.85726C9.35088 6.84208 9.33956 6.82601 9.32805 6.80731C9.26226 6.70052 8.57738 6.51527 8.01849 6.36409C7.90344 6.33297 7.79372 6.3033 7.69585 6.27605C7.19841 6.13755 6.17529 6.24615 5.62046 6.30504C5.53581 6.31402 5.46206 6.32185 5.40274 6.32747C4.95461 6.3699 4.91638 6.4348 5.06432 6.50297C5.17121 6.55219 5.81909 6.79459 6.40236 7.01283C6.62636 7.09664 6.84084 7.17689 7.01149 7.24126C7.07985 7.26705 7.15126 7.29315 7.22433 7.31986C7.8086 7.53341 8.49837 7.78554 8.57744 8.22526C8.64747 8.61475 8.33112 9.15847 8.04857 9.64408C7.97222 9.77531 7.89833 9.90231 7.83521 10.0209C7.53845 10.5781 7.53057 10.6442 7.55118 10.8697C7.56784 11.0526 8.2324 11.4651 8.60062 11.6936C8.68643 11.7468 8.75615 11.7901 8.79782 11.8182C8.83437 11.8428 8.89766 11.8812 8.97781 11.93C9.38115 12.1753 10.2116 12.6802 10.2116 12.9837C10.2116 13.3476 9.05721 14.2986 8.69297 14.5348C8.32873 14.771 7.33825 15.288 6.9165 15.3669C6.49475 15.4457 5.83656 14.9688 5.45233 14.2544C5.09117 13.5827 5.37485 12.9199 5.60466 12.383C5.61931 12.3487 5.63374 12.315 5.64777 12.2819C5.85745 11.7862 5.56027 11.4878 5.35847 11.2852C5.33488 11.2615 5.3126 11.2391 5.29258 11.2179L3.27113 9.07373C3.21209 9.0111 3.1531 8.95381 3.09592 8.89828C2.82289 8.6331 2.59106 8.40794 2.59106 7.83268C2.59106 7.13693 5.28701 3.88161 5.28701 3.88161C5.28701 3.88161 7.56191 4.31566 7.86864 4.31566C8.1134 4.31566 8.58601 4.15308 9.07869 3.98361C9.20343 3.9407 9.32946 3.89735 9.4534 3.85608C10.0669 3.65183 10.4758 3.65034 10.4758 3.65034C10.4758 3.65034 10.8848 3.65183 11.4983 3.85608C11.6222 3.89735 11.7482 3.9407 11.873 3.98361C12.3657 4.15308 12.8383 4.31566 13.083 4.31566Z" fill="white"/>
<path d="M12.6925 15.8301C13.1734 16.0776 13.5146 16.2532 13.6436 16.3338C13.8105 16.4382 13.7087 16.635 13.5567 16.7423C13.4047 16.8496 11.3618 18.4298 11.1636 18.6044C11.1382 18.6268 11.1113 18.651 11.0833 18.6762C10.8922 18.8482 10.6486 19.0676 10.4758 19.0676C10.303 19.0676 10.0592 18.848 9.86814 18.676C9.84019 18.6508 9.81338 18.6267 9.78809 18.6044C9.58979 18.4298 7.54697 16.8496 7.39494 16.7423C7.2429 16.635 7.14117 16.4382 7.30803 16.3338C7.43711 16.2532 7.77862 16.0774 8.26001 15.8296C8.4011 15.757 8.55421 15.6782 8.7175 15.5938C9.43785 15.2214 10.3357 14.9048 10.4758 14.9048C10.6159 14.9048 11.5137 15.2214 12.2342 15.5938C12.3978 15.6784 12.5512 15.7573 12.6925 15.8301Z" fill="white"/>
<path fill-rule="evenodd" clip-rule="evenodd" d="M16.2526 2.37523L14.1567 0H10.4759H6.79516L4.69918 2.37523C4.69918 2.37523 2.85881 1.8646 1.98975 2.73268C1.98975 2.73268 4.44358 2.51142 5.28708 3.88162C5.28708 3.88162 7.56199 4.31566 7.86871 4.31566C8.17544 4.31566 8.84002 4.06034 9.45348 3.85608C10.0669 3.65183 10.4759 3.65035 10.4759 3.65035C10.4759 3.65035 10.8849 3.65183 11.4983 3.85608C12.1118 4.06034 12.7764 4.31566 13.0831 4.31566C13.3898 4.31566 15.6647 3.88162 15.6647 3.88162C16.5082 2.51142 18.9621 2.73268 18.9621 2.73268C18.093 1.8646 16.2526 2.37523 16.2526 2.37523Z" fill="#546071"/>
<path fill-rule="evenodd" clip-rule="evenodd" d="M25.8 13.0812V4.76443H26.5994C27.2507 4.76443 27.7787 5.28989 27.7787 5.93806V9.63593C29.0598 8.49839 30.1493 8.04303 31.6013 8.01382C34.3862 7.95711 36.8034 10.0157 37.0331 12.7788C37.3076 16.0797 34.8956 18.5644 31.7532 18.5644C28.3036 18.5644 25.8 16.4354 25.8 13.0812ZM27.7459 13.7342C27.941 15.4525 29.5899 16.8719 31.3285 16.8994C33.5938 16.9337 35.1373 15.4646 35.1373 13.2908C35.1373 11.1171 33.6283 9.68233 31.4269 9.68233C29.0736 9.67718 27.4783 11.3783 27.7459 13.7342Z" fill="#546071"/>
<path fill-rule="evenodd" clip-rule="evenodd" d="M40.3343 8.22171V9.70292C41.5792 8.32824 42.3164 7.9588 43.7736 7.9588C44.1975 7.95926 44.6207 7.99316 45.0392 8.06018V10.0277C44.5926 9.90551 44.1314 9.84424 43.6683 9.84554C42.6134 9.84554 41.7276 10.1892 41.0785 10.8387C40.5087 11.4075 40.3395 11.8526 40.3395 12.7461V18.2242H38.2883V8.22171H40.3343Z" fill="#546071"/>
<path fill-rule="evenodd" clip-rule="evenodd" d="M45.5259 11.5295C45.6313 10.5552 45.8212 10.0277 46.2425 9.52077C47.0868 8.48977 48.6061 7.9588 50.7574 7.9588C52.4667 7.9588 53.7116 8.22343 54.5766 8.79048C55.2948 9.25615 55.5901 9.94692 55.5901 11.1635V15.6054C55.5901 16.5797 55.8439 16.9234 56.5397 16.9045C56.6951 16.899 56.8502 16.8853 57.0041 16.8632V18.2018C56.6582 18.3195 56.2939 18.3742 55.9285 18.3634C54.6422 18.3634 54.0517 17.9784 53.6511 16.8615C52.3856 18.018 51.0768 18.5043 49.2001 18.5043C46.6896 18.5043 45.1496 17.3684 45.1496 15.5212C45.1386 14.4678 45.7612 13.5099 46.7311 13.0881C47.4908 12.7633 47.9552 12.6619 50.1272 12.4385C51.9833 12.2564 52.301 12.2151 52.8276 12.0519C53.3973 11.8697 53.6511 11.5656 53.6511 11.0587C53.6511 9.98301 52.7447 9.49672 50.8455 9.49672C49.0499 9.49672 48.1244 9.8507 47.7532 10.7545C47.5693 11.2167 47.1218 11.5214 46.6223 11.5244L45.5259 11.5295ZM53.6408 13.2341C52.3395 13.6108 51.0032 13.8555 49.6524 13.9644C47.8171 14.1465 47.2473 14.4919 47.2473 15.4044C47.2473 16.4182 48.0916 16.9509 49.7577 16.9509C51.1286 16.9509 52.1628 16.6072 52.9018 15.937C53.4923 15.3889 53.6408 15.004 53.6408 14.0469V13.2341Z" fill="#546071"/>
<path fill-rule="evenodd" clip-rule="evenodd" d="M61.9559 18.2225H61.4275C60.9621 18.2254 60.5363 17.9621 60.3329 17.5454L55.9077 8.22173H57.137C57.8534 8.21604 58.5055 8.63188 58.7997 9.28195L61.7521 15.9835L64.803 9.25617C65.1015 8.61635 65.7482 8.2092 66.457 8.21486H67.5741L63.0453 17.5558C62.8397 17.9667 62.4171 18.2253 61.9559 18.2225Z" fill="#546071"/>
<path fill-rule="evenodd" clip-rule="evenodd" d="M68.9606 13.8012C69.1713 15.7291 70.6872 16.9251 72.9473 16.9251C74.2301 16.9251 75.1918 16.5454 75.7875 15.7876C76.1349 15.353 76.6625 15.1 77.2205 15.1002H78.4101C77.3742 17.3719 75.5199 18.4888 72.7556 18.4888C69.3025 18.4888 66.9751 16.3993 66.9751 13.2754C66.9751 10.1514 69.3595 7.96053 72.7988 7.96053C75.2868 7.96053 77.2879 9.07573 78.0942 10.9436C78.4533 11.8027 78.6001 12.5657 78.6001 13.8029L68.9606 13.8012ZM76.5126 12.2547C76.0482 10.4899 74.6773 9.495 72.7781 9.495C70.8789 9.495 69.508 10.4899 69.0228 12.2547H76.5126Z" fill="#546071"/>
<path d="M92.5041 15.728H87.8481L87.0481 18H85.1441L89.1281 6.864H91.2401L95.2241 18H93.3041L92.5041 15.728ZM91.9921 14.24L90.1841 9.072L88.3601 14.24H91.9921ZM96.3483 13.552C96.3483 12.6667 96.5297 11.8827 96.8923 11.2C97.2657 10.5173 97.767 9.98933 98.3963 9.616C99.0363 9.232 99.7457 9.04 100.524 9.04C101.1 9.04 101.666 9.168 102.22 9.424C102.786 9.66933 103.234 10 103.564 10.416V6.16H105.404V18H103.564V16.672C103.266 17.0987 102.85 17.4507 102.316 17.728C101.794 18.0053 101.191 18.144 100.508 18.144C99.7403 18.144 99.0363 17.952 98.3963 17.568C97.767 17.1733 97.2657 16.6293 96.8923 15.936C96.5297 15.232 96.3483 14.4373 96.3483 13.552ZM103.564 13.584C103.564 12.976 103.436 12.448 103.18 12C102.935 11.552 102.61 11.2107 102.204 10.976C101.799 10.7413 101.362 10.624 100.892 10.624C100.423 10.624 99.9857 10.7413 99.5803 10.976C99.175 11.2 98.8443 11.536 98.5883 11.984C98.343 12.4213 98.2203 12.944 98.2203 13.552C98.2203 14.16 98.343 14.6933 98.5883 15.152C98.8443 15.6107 99.175 15.9627 99.5803 16.208C99.9963 16.4427 100.434 16.56 100.892 16.56C101.362 16.56 101.799 16.4427 102.204 16.208C102.61 15.9733 102.935 15.632 103.18 15.184C103.436 14.7253 103.564 14.192 103.564 13.584ZM111 18.144C110.307 18.144 109.683 18.0213 109.128 17.776C108.584 17.52 108.152 17.1787 107.832 16.752C107.512 16.3147 107.341 15.8293 107.32 15.296H109.208C109.24 15.6693 109.416 15.984 109.736 16.24C110.067 16.4853 110.477 16.608 110.968 16.608C111.48 16.608 111.875 16.512 112.152 16.32C112.44 16.1173 112.584 15.8613 112.584 15.552C112.584 15.2213 112.424 14.976 112.104 14.816C111.795 14.656 111.299 14.48 110.616 14.288C109.955 14.1067 109.416 13.9307 109 13.76C108.584 13.5893 108.221 13.328 107.912 12.976C107.613 12.624 107.464 12.16 107.464 11.584C107.464 11.1147 107.603 10.688 107.88 10.304C108.157 9.90933 108.552 9.6 109.064 9.376C109.587 9.152 110.184 9.04 110.856 9.04C111.859 9.04 112.664 9.296 113.272 9.808C113.891 10.3093 114.221 10.9973 114.264 11.872H112.44C112.408 11.4773 112.248 11.1627 111.96 10.928C111.672 10.6933 111.283 10.576 110.792 10.576C110.312 10.576 109.944 10.6667 109.688 10.848C109.432 11.0293 109.304 11.2693 109.304 11.568C109.304 11.8027 109.389 12 109.56 12.16C109.731 12.32 109.939 12.448 110.184 12.544C110.429 12.6293 110.792 12.7413 111.272 12.88C111.912 13.0507 112.435 13.2267 112.84 13.408C113.256 13.5787 113.613 13.8347 113.912 14.176C114.211 14.5173 114.365 14.9707 114.376 15.536C114.376 16.0373 114.237 16.4853 113.96 16.88C113.683 17.2747 113.288 17.584 112.776 17.808C112.275 18.032 111.683 18.144 111 18.144Z" fill="#546071"/>
</svg>
