<svg width="378" height="65" viewBox="0 0 378 65" fill="none" xmlns="http://www.w3.org/2000/svg">
<path fill-rule="evenodd" clip-rule="evenodd" d="M56.0413 15.5606L57.5987 11.8266C57.5987 11.8266 55.6166 9.75209 53.2098 7.40103C50.803 5.04996 45.7062 6.43294 45.7062 6.43294L39.9016 1.52588e-05H29.708H19.5145L13.7098 6.43294C13.7098 6.43294 8.61305 5.04996 6.20624 7.40103C3.79943 9.75209 1.81735 11.8266 1.81735 11.8266L3.3747 15.5606L1.39262 21.0925C1.39262 21.0925 7.22206 42.6608 7.90516 45.2946C9.25015 50.4808 10.1704 52.4861 13.993 55.1138C17.8156 57.7415 24.7528 62.3053 25.8854 62.9968C27.0181 63.6883 28.4338 64.8661 29.708 64.8661C30.9822 64.8661 32.398 63.6883 33.5306 62.9968C34.6632 62.3053 41.6005 57.7415 45.4231 55.1138C49.2456 52.4861 50.1659 50.4808 51.5109 45.2946C52.1938 42.6608 58.0234 21.0925 58.0234 21.0925L56.0413 15.5606Z" fill="url(#paint0_linear_1_51)"/>
<path d="M36.9284 11.6882C37.7779 11.6882 44.0781 10.5127 44.0781 10.5127C44.0781 10.5127 51.5443 19.3292 51.5443 21.2135C51.5443 22.7715 50.9022 23.3813 50.1461 24.0994C49.9877 24.2498 49.8243 24.405 49.6607 24.5747L44.0625 30.3817C44.007 30.4392 43.9452 30.4999 43.8798 30.5641C43.3211 31.113 42.4982 31.9212 43.0788 33.2634C43.1176 33.3531 43.1575 33.4443 43.1981 33.5369C43.8347 34.9911 44.6205 36.7863 43.6202 38.6056C42.5561 40.5406 40.7333 41.8322 39.5653 41.6187C38.3973 41.405 35.6542 40.0047 34.6455 39.3651C33.6368 38.7255 30.4397 36.1498 30.4397 35.1643C30.4397 34.3424 32.7389 32.975 33.8561 32.3107C34.0783 32.1785 34.2537 32.0742 34.355 32.0075C34.4703 31.9316 34.6632 31.8146 34.9006 31.6705C35.9202 31.0517 37.7613 29.9343 37.8076 29.4389C37.8645 28.828 37.8429 28.6489 37.021 27.1398C36.8463 26.8189 36.6418 26.4752 36.4304 26.12C35.6478 24.8046 34.7715 23.3318 34.9655 22.2767C35.1844 21.0858 37.0949 20.4029 38.7131 19.8245C38.9153 19.7522 39.113 19.6815 39.3023 19.6117C39.7745 19.4375 40.368 19.2204 40.9879 18.9935C42.6035 18.4024 44.3986 17.7456 44.6946 17.6122C45.1045 17.4276 44.9986 17.2518 43.7574 17.1369C43.5932 17.1217 43.389 17.1005 43.1547 17.0762C41.6183 16.9167 38.7845 16.6225 37.4068 16.9976C37.1359 17.0714 36.8321 17.1518 36.5136 17.236C34.9658 17.6455 33.0689 18.1472 32.8867 18.4365C32.8548 18.4871 32.8235 18.5306 32.7939 18.5717C32.6196 18.8138 32.5059 18.9716 32.6988 20.0002C32.7562 20.3065 32.8743 20.909 33.0204 21.654C33.4479 23.8353 34.1148 27.2379 34.1988 28.0023C34.2106 28.1093 34.2235 28.2125 34.236 28.3118C34.343 29.1646 34.4142 29.7321 33.4003 29.9585C33.3159 29.9773 33.2272 29.9972 33.1351 30.0179C31.9911 30.2743 30.314 30.6503 29.708 30.6503C29.1018 30.6503 27.4233 30.274 26.2794 30.0175C26.1878 29.997 26.0996 29.9772 26.0157 29.9585C25.0017 29.7321 25.0729 29.1646 25.1799 28.3118C25.1923 28.2124 25.2053 28.1092 25.217 28.0023C25.3013 27.2368 25.9699 23.8259 26.3974 21.645C26.5426 20.9042 26.66 20.3053 26.7172 20.0002C26.91 18.9717 26.7963 18.8138 26.6221 18.5717C26.5925 18.5306 26.5612 18.4871 26.5293 18.4365C26.3471 18.1472 24.4504 17.6455 22.9026 17.2361C22.584 17.1518 22.2801 17.0714 22.0091 16.9976C20.6314 16.6225 17.798 16.9166 16.2614 17.0761C16.027 17.1005 15.8228 17.1217 15.6585 17.1369C14.4174 17.2518 14.3115 17.4276 14.7212 17.6122C15.0173 17.7455 16.8115 18.402 18.4268 18.9931C19.0472 19.2201 19.6412 19.4374 20.1138 19.6117C20.3031 19.6816 20.5009 19.7523 20.7032 19.8246C22.3213 20.403 24.2316 21.0858 24.4506 22.2767C24.6445 23.3316 23.7684 24.8042 22.9859 26.1194C22.7744 26.4748 22.5698 26.8187 22.395 27.1398C21.5731 28.6489 21.5513 28.828 21.6084 29.4389C21.6546 29.9342 23.495 31.0512 24.5148 31.6701C24.7524 31.8144 24.9455 31.9316 25.0609 32.0075C25.1621 32.0742 25.3374 32.1784 25.5594 32.3104C26.6764 32.9746 28.9762 34.3423 28.9762 35.1643C28.9762 36.1498 25.7793 38.7255 24.7705 39.3651C23.7618 40.0047 21.0187 41.405 19.8507 41.6187C18.6827 41.8322 16.8599 40.5406 15.7958 38.6056C14.7956 36.7864 15.5812 34.9914 16.2177 33.5372C16.2582 33.4445 16.2982 33.3532 16.3371 33.2634C16.9177 31.921 16.0947 31.1128 15.5359 30.5639C15.4705 30.4998 15.4088 30.4392 15.3534 30.3817L9.75515 24.5747C9.59163 24.4051 9.42826 24.2499 9.26991 24.0995C8.51376 23.3813 7.87175 22.7715 7.87175 21.2135C7.87175 19.3292 15.338 10.5127 15.338 10.5127C15.338 10.5127 21.6381 11.6882 22.4876 11.6882C23.1654 11.6882 24.4743 11.2479 25.8387 10.7889C26.1842 10.6727 26.5332 10.5553 26.8765 10.4436C28.5754 9.89036 29.708 9.88635 29.708 9.88635C29.708 9.88635 30.8406 9.89036 32.5396 10.4436C32.8828 10.5553 33.2318 10.6727 33.5773 10.7889C34.9417 11.2479 36.2506 11.6882 36.9284 11.6882Z" fill="white"/>
<path d="M35.847 42.8731C37.1788 43.5435 38.1237 44.0191 38.4809 44.2375C38.943 44.5202 38.6612 45.0531 38.2403 45.3438C37.8192 45.6345 32.1617 49.9139 31.6126 50.3869C31.5424 50.4475 31.4679 50.513 31.3903 50.5814C30.8612 51.0472 30.1864 51.6413 29.708 51.6413C29.2294 51.6413 28.5541 51.0467 28.025 50.5808C27.9477 50.5127 27.8734 50.4473 27.8033 50.3869C27.2542 49.9139 21.5968 45.6345 21.1757 45.3438C20.7547 45.0531 20.4729 44.5202 20.935 44.2375C21.2925 44.019 22.2383 43.5429 23.5715 42.8719C23.9622 42.6752 24.3862 42.4618 24.8384 42.2332C26.8334 41.2247 29.3199 40.3672 29.708 40.3672C30.096 40.3672 32.5824 41.2247 34.5777 42.2332C35.0308 42.4622 35.4556 42.6761 35.847 42.8731Z" fill="white"/>
<path d="M73.1948 26.1671C74.2534 24.1243 75.6648 22.5643 77.4662 21.4686C79.2677 20.3729 81.2734 19.8157 83.502 19.8157C85.452 19.8157 87.142 20.2057 88.6091 20.9857C90.0577 21.7657 91.2277 22.75 92.1191 23.9386V20.2243H98.7491V46.2614H92.1191V42.4543C91.2648 43.68 90.1134 44.6829 88.6091 45.4814C87.1234 46.28 85.3962 46.6886 83.4648 46.6886C81.2734 46.6886 79.2677 46.1314 77.4662 44.9986C75.6648 43.8657 74.2348 42.2871 73.1948 40.2257C72.1362 38.1643 71.6162 35.8057 71.6162 33.15C71.6162 30.4943 72.1362 28.1914 73.1948 26.1486V26.1671ZM91.172 29.1571C90.5405 28.0057 89.7048 27.1329 88.6277 26.52C87.5691 25.9071 86.4177 25.61 85.192 25.61C83.9662 25.61 82.8334 25.9071 81.812 26.5014C80.772 27.0957 79.9362 27.9686 79.3048 29.1014C78.6548 30.2529 78.3391 31.6086 78.3391 33.1686C78.3391 34.7286 78.6548 36.1029 79.3048 37.2729C79.9548 38.4429 80.7905 39.3529 81.8491 39.9843C82.9077 40.6157 84.0219 40.9314 85.2105 40.9314C86.3991 40.9314 87.5691 40.6343 88.6462 40.0214C89.7048 39.4086 90.5591 38.5357 91.1905 37.3843C91.8219 36.2329 92.1377 34.8771 92.1377 33.28C92.1377 31.6829 91.8219 30.3086 91.1905 29.1757L91.172 29.1571Z" fill="black"/>
<path d="M103.188 26.1671C104.246 24.1243 105.676 22.5643 107.496 21.4686C109.316 20.3729 111.341 19.8157 113.569 19.8157C115.259 19.8157 116.875 20.1871 118.416 20.9114C119.958 21.6543 121.165 22.62 122.075 23.8457V11.4771H128.742V46.2614H122.075V42.3986C121.258 43.68 120.125 44.72 118.639 45.5C117.172 46.28 115.463 46.67 113.513 46.67C111.322 46.67 109.316 46.1129 107.496 44.98C105.676 43.8471 104.246 42.2686 103.188 40.2071C102.129 38.1457 101.609 35.7871 101.609 33.1314C101.609 30.4757 102.129 28.1729 103.188 26.13V26.1671ZM121.165 29.1571C120.533 28.0057 119.698 27.1329 118.621 26.52C117.562 25.9071 116.411 25.61 115.185 25.61C113.959 25.61 112.826 25.9071 111.805 26.5014C110.765 27.0957 109.929 27.9686 109.298 29.1014C108.648 30.2529 108.332 31.6086 108.332 33.1686C108.332 34.7286 108.648 36.1029 109.298 37.2729C109.948 38.4429 110.783 39.3529 111.842 39.9843C112.901 40.6157 114.015 40.9314 115.203 40.9314C116.392 40.9314 117.562 40.6343 118.639 40.0214C119.698 39.4086 120.552 38.5357 121.183 37.3843C121.815 36.2329 122.131 34.8771 122.131 33.28C122.131 31.6829 121.815 30.3086 121.183 29.1757L121.165 29.1571Z" fill="black"/>
<path d="M137.526 45.5743C135.836 44.8129 134.499 43.7729 133.515 42.4543C132.531 41.1357 131.992 39.6871 131.899 38.09H138.529C138.659 39.0929 139.142 39.9286 140.015 40.5786C140.869 41.2286 141.946 41.5629 143.228 41.5629C144.509 41.5629 145.456 41.3214 146.162 40.8014C146.868 40.3 147.221 39.65 147.221 38.87C147.221 38.0157 146.793 37.3843 145.921 36.9571C145.066 36.53 143.692 36.0657 141.816 35.5643C139.866 35.1 138.288 34.6171 137.043 34.1157C135.799 33.6143 134.741 32.8529 133.849 31.8129C132.958 30.7729 132.512 29.38 132.512 27.6343C132.512 26.1857 132.921 24.8857 133.756 23.6786C134.592 22.49 135.781 21.5429 137.322 20.8557C138.882 20.1686 140.702 19.8157 142.801 19.8157C145.902 19.8157 148.372 20.5957 150.229 22.1371C152.086 23.6971 153.089 25.7771 153.293 28.4143H146.998C146.905 27.3743 146.478 26.5571 145.698 25.9443C144.936 25.3314 143.896 25.0343 142.615 25.0343C141.426 25.0343 140.498 25.2571 139.866 25.6843C139.216 26.13 138.901 26.7429 138.901 27.5229C138.901 28.3957 139.346 29.0643 140.219 29.5286C141.092 29.9743 142.466 30.4386 144.305 30.9214C146.181 31.3857 147.741 31.8686 148.966 32.37C150.192 32.8714 151.251 33.6514 152.142 34.6914C153.033 35.75 153.498 37.1243 153.535 38.8514C153.535 40.3557 153.126 41.7114 152.291 42.9C151.455 44.0886 150.266 45.0171 148.725 45.7043C147.165 46.3729 145.363 46.7071 143.302 46.7071C141.241 46.7071 139.253 46.3171 137.563 45.5557L137.526 45.5743Z" fill="black"/>
<path d="M209.509 22.8057C211.459 24.7557 212.443 27.5043 212.443 31.0143V46.2986H205.869V31.9057C205.869 29.8629 205.349 28.3029 204.309 27.2257C203.269 26.1486 201.858 25.61 200.075 25.61C198.292 25.61 196.862 26.1486 195.822 27.2257C194.763 28.3029 194.243 29.8629 194.243 31.9057V46.2986H187.669V31.9057C187.669 29.8629 187.149 28.3029 186.109 27.2257C185.069 26.1486 183.658 25.61 181.875 25.61C180.092 25.61 178.625 26.1486 177.566 27.2257C176.508 28.3029 175.988 29.8629 175.988 31.9057V46.2986H169.413V20.2614H175.988V23.4186C176.842 22.3229 177.919 21.4686 179.256 20.8371C180.593 20.2057 182.061 19.89 183.658 19.89C185.701 19.89 187.521 20.3171 189.118 21.19C190.715 22.0443 191.959 23.2886 192.832 24.8857C193.686 23.3814 194.912 22.1743 196.528 21.2643C198.143 20.3543 199.889 19.9086 201.765 19.9086C204.959 19.9086 207.541 20.8929 209.491 22.8429L209.509 22.8057Z" fill="black"/>
<path d="M216.696 26.1671C217.755 24.1243 219.166 22.5643 220.968 21.4686C222.769 20.3729 224.775 19.8157 227.003 19.8157C228.953 19.8157 230.643 20.2057 232.111 20.9857C233.559 21.7657 234.729 22.75 235.621 23.9386V20.2243H242.251V46.2614H235.621V42.4543C234.766 43.68 233.615 44.6829 232.111 45.4814C230.625 46.28 228.898 46.6886 226.966 46.6886C224.775 46.6886 222.769 46.1314 220.968 44.9986C219.166 43.8657 217.736 42.2871 216.696 40.2257C215.638 38.1643 215.118 35.8057 215.118 33.15C215.118 30.4943 215.638 28.1914 216.696 26.1486V26.1671ZM234.673 29.1571C234.042 28.0057 233.206 27.1329 232.129 26.52C231.071 25.9071 229.919 25.61 228.693 25.61C227.468 25.61 226.335 25.9071 225.313 26.5014C224.273 27.0957 223.438 27.9686 222.806 29.1014C222.156 30.2529 221.841 31.6086 221.841 33.1686C221.841 34.7286 222.156 36.1029 222.806 37.2729C223.456 38.4429 224.292 39.3529 225.351 39.9843C226.409 40.6157 227.523 40.9314 228.712 40.9314C229.901 40.9314 231.071 40.6343 232.148 40.0214C233.206 39.4086 234.061 38.5357 234.692 37.3843C235.323 36.2329 235.639 34.8771 235.639 33.28C235.639 31.6829 235.323 30.3086 234.692 29.1757L234.673 29.1571Z" fill="black"/>
<path d="M267.823 22.8057C269.736 24.7557 270.683 27.5043 270.683 31.0143V46.2986H264.109V31.9057C264.109 29.8443 263.589 28.2471 262.549 27.1329C261.509 26.0186 260.098 25.4614 258.315 25.4614C256.532 25.4614 255.065 26.0186 254.006 27.1329C252.948 28.2471 252.428 29.8443 252.428 31.9057V46.2986H245.853V20.2614H252.428V23.5114C253.301 22.3786 254.433 21.5057 255.789 20.8557C257.145 20.2057 258.649 19.89 260.283 19.89C263.385 19.89 265.892 20.8743 267.805 22.8243L267.823 22.8057Z" fill="black"/>
<path d="M275.579 26.1671C276.637 24.1243 278.049 22.5643 279.85 21.4686C281.651 20.3729 283.657 19.8157 285.886 19.8157C287.836 19.8157 289.526 20.2057 290.993 20.9857C292.441 21.7657 293.611 22.75 294.503 23.9386V20.2243H301.133V46.2614H294.503V42.4543C293.649 43.68 292.497 44.6829 290.993 45.4814C289.507 46.28 287.78 46.6886 285.849 46.6886C283.657 46.6886 281.651 46.1314 279.85 44.9986C278.049 43.8657 276.619 42.2871 275.579 40.2257C274.52 38.1643 274 35.8057 274 33.15C274 30.4943 274.52 28.1914 275.579 26.1486V26.1671ZM293.556 29.1571C292.924 28.0057 292.089 27.1329 291.011 26.52C289.953 25.9071 288.801 25.61 287.576 25.61C286.35 25.61 285.217 25.9071 284.196 26.5014C283.156 27.0957 282.32 27.9686 281.689 29.1014C281.039 30.2529 280.723 31.6086 280.723 33.1686C280.723 34.7286 281.039 36.1029 281.689 37.2729C282.339 38.4429 283.174 39.3529 284.233 39.9843C285.291 40.6157 286.406 40.9314 287.594 40.9314C288.783 40.9314 289.953 40.6343 291.03 40.0214C292.089 39.4086 292.943 38.5357 293.574 37.3843C294.206 36.2329 294.521 34.8771 294.521 33.28C294.521 31.6829 294.206 30.3086 293.574 29.1757L293.556 29.1571Z" fill="black"/>
<path d="M321.03 21.1514C322.497 21.9129 323.667 22.9157 324.503 24.1414V20.4271H331.133V46.65C331.133 49.0643 330.65 51.2186 329.684 53.1129C328.719 55.0071 327.251 56.5114 325.32 57.6257C323.37 58.74 321.03 59.2971 318.263 59.2971C314.567 59.2971 311.54 58.4429 309.163 56.7157C306.804 54.9886 305.449 52.6486 305.151 49.6586H311.689C312.041 50.8471 312.784 51.7943 313.917 52.5C315.069 53.2057 316.443 53.5586 318.077 53.5586C319.99 53.5586 321.531 52.9829 322.739 51.85C323.927 50.6986 324.521 48.9714 324.521 46.65V42.6014C323.667 43.8271 322.516 44.8486 321.011 45.6657C319.526 46.4829 317.817 46.8914 315.904 46.8914C313.713 46.8914 311.707 46.3343 309.887 45.2014C308.067 44.0686 306.637 42.49 305.579 40.4286C304.52 38.3671 304 36.0086 304 33.3529C304 30.6971 304.52 28.3943 305.579 26.3514C306.637 24.3086 308.049 22.7486 309.85 21.6529C311.651 20.5571 313.657 20 315.886 20C317.836 20 319.544 20.39 321.011 21.1514H321.03ZM323.574 29.3229C322.943 28.1714 322.107 27.2986 321.03 26.6857C319.971 26.0729 318.82 25.7757 317.594 25.7757C316.369 25.7757 315.236 26.0729 314.214 26.6671C313.174 27.2614 312.339 28.1343 311.707 29.2671C311.057 30.4186 310.741 31.7743 310.741 33.3343C310.741 34.8943 311.057 36.2686 311.707 37.4386C312.357 38.6086 313.193 39.5186 314.251 40.15C315.31 40.7814 316.424 41.0971 317.613 41.0971C318.801 41.0971 319.971 40.8 321.049 40.1871C322.107 39.5743 322.961 38.7014 323.593 37.55C324.224 36.3986 324.54 35.0429 324.54 33.4457C324.54 31.8486 324.224 30.4743 323.593 29.3414L323.574 29.3229Z" fill="black"/>
<path d="M359.74 35.2486H340.704C340.853 37.1243 341.521 38.61 342.673 39.6686C343.824 40.7271 345.254 41.2657 346.944 41.2657C349.396 41.2657 351.123 40.2071 352.163 38.1086H359.257C358.514 40.6157 357.066 42.6771 354.93 44.2929C352.794 45.9086 350.176 46.7071 347.074 46.7071C344.567 46.7071 342.32 46.15 340.333 45.0357C338.346 43.9214 336.786 42.3429 335.671 40.3186C334.557 38.2757 334 35.9357 334 33.2614C334 30.5871 334.557 28.21 335.653 26.1671C336.749 24.1243 338.29 22.5643 340.259 21.4686C342.227 20.3729 344.511 19.8157 347.074 19.8157C349.637 19.8157 351.773 20.3543 353.723 21.4129C355.673 22.4714 357.196 23.9943 358.291 25.9443C359.369 27.8943 359.907 30.16 359.907 32.6857C359.907 33.6329 359.851 34.4686 359.721 35.23L359.74 35.2486ZM353.11 30.8286C353.073 29.1386 352.46 27.7829 351.271 26.7614C350.083 25.74 348.616 25.2386 346.907 25.2386C345.273 25.2386 343.899 25.74 342.803 26.7243C341.689 27.7086 341.001 29.0829 340.76 30.8286H353.129H353.11Z" fill="black"/>
<path d="M372.899 21.06C374.254 20.28 375.814 19.89 377.579 19.89V26.7986H375.833C373.771 26.7986 372.211 27.2814 371.153 28.2471C370.094 29.2129 369.574 30.9029 369.574 33.3171V46.2986H363V20.2614H369.574V24.31C370.429 22.9357 371.524 21.8586 372.88 21.06H372.899Z" fill="black"/>
<defs>
<linearGradient id="paint0_linear_1_51" x1="1.39262" y1="65.3238" x2="58.0234" y2="65.3238" gradientUnits="userSpaceOnUse">
<stop stop-color="#FF5500"/>
<stop offset="0.333333" stop-color="#FF5500"/>
<stop offset="0.666667" stop-color="#FF2000"/>
<stop offset="1" stop-color="#FF2000"/>
</linearGradient>
</defs>
</svg>
