<svg width="56" height="56" viewBox="0 0 56 56" fill="none" xmlns="http://www.w3.org/2000/svg">
<path d="M35.3594 22.2656C35.3594 23.3177 35.1406 24.2292 34.7031 25C34.2656 25.7708 33.6719 26.401 32.9219 26.8906C32.1823 27.3802 31.349 27.7396 30.4219 27.9688V28.0625C32.2552 28.2917 33.6458 28.8542 34.5938 29.75C35.5521 30.6458 36.0312 31.8438 36.0312 33.3438C36.0312 34.6771 35.7031 35.8698 35.0469 36.9219C34.401 37.974 33.401 38.8021 32.0469 39.4062C30.6927 40.0104 28.9479 40.3125 26.8125 40.3125C25.5521 40.3125 24.375 40.2083 23.2812 40C22.1979 39.8021 21.1771 39.4948 20.2188 39.0781V34.9688C21.1979 35.4688 22.224 35.849 23.2969 36.1094C24.3698 36.3594 25.3698 36.4844 26.2969 36.4844C28.026 36.4844 29.2344 36.1875 29.9219 35.5938C30.6198 34.9896 30.9688 34.1458 30.9688 33.0625C30.9688 32.4271 30.8073 31.8906 30.4844 31.4531C30.1615 31.0156 29.599 30.6823 28.7969 30.4531C28.0052 30.224 26.8958 30.1094 25.4688 30.1094H23.7344V26.4062H25.5C26.9062 26.4062 27.974 26.276 28.7031 26.0156C29.4427 25.7448 29.9427 25.3802 30.2031 24.9219C30.474 24.4531 30.6094 23.9219 30.6094 23.3281C30.6094 22.5156 30.3594 21.8802 29.8594 21.4219C29.3594 20.9635 28.526 20.7344 27.3594 20.7344C26.6302 20.7344 25.9635 20.8281 25.3594 21.0156C24.7656 21.1927 24.2292 21.4115 23.75 21.6719C23.2708 21.9219 22.849 22.1667 22.4844 22.4062L20.25 19.0781C21.1458 18.4323 22.1927 17.8958 23.3906 17.4688C24.599 17.0417 26.0365 16.8281 27.7031 16.8281C30.0573 16.8281 31.9219 17.3021 33.2969 18.25C34.6719 19.1979 35.3594 20.5365 35.3594 22.2656Z" fill="#FFFF"/>
<circle cx="28" cy="28" r="27" stroke="#FFFF" stroke-width="2"/>
</svg>
