<svg width="56" height="56" viewBox="0 0 56 56" fill="none" xmlns="http://www.w3.org/2000/svg">
<path d="M35.25 40H19.2812V36.6406L25.0156 30.8438C26.1719 29.6562 27.099 28.6667 27.7969 27.875C28.5052 27.0729 29.0156 26.3438 29.3281 25.6875C29.651 25.0312 29.8125 24.3281 29.8125 23.5781C29.8125 22.6719 29.5573 21.9948 29.0469 21.5469C28.5469 21.0885 27.875 20.8594 27.0312 20.8594C26.1458 20.8594 25.2865 21.0625 24.4531 21.4688C23.6198 21.875 22.75 22.4531 21.8438 23.2031L19.2188 20.0938C19.875 19.5312 20.5677 19 21.2969 18.5C22.0365 18 22.8906 17.599 23.8594 17.2969C24.8385 16.9844 26.0104 16.8281 27.375 16.8281C28.875 16.8281 30.1615 17.099 31.2344 17.6406C32.3177 18.1823 33.151 18.9219 33.7344 19.8594C34.3177 20.7865 34.6094 21.8385 34.6094 23.0156C34.6094 24.276 34.3594 25.4271 33.8594 26.4688C33.3594 27.5104 32.6302 28.5417 31.6719 29.5625C30.724 30.5833 29.5781 31.7135 28.2344 32.9531L25.2969 35.7188V35.9375H35.25V40Z" fill="#423eee"/>
<circle cx="28" cy="28" r="27" stroke="#423eee" stroke-width="2"/>
</svg>
